<?xml version="1.0" encoding="UTF-8"?>
<!DOCTYPE svg  PUBLIC '-//W3C//DTD SVG 1.1//EN'  'http://www.w3.org/Graphics/SVG/1.1/DTD/svg11.dtd'>
<svg version="1.1" xmlns="http://www.w3.org/2000/svg">
<defs>
<font id="Latoto" horiz-adv-x="1133">
<font-face font-family="Latoto" font-weight="400" ascent="1600" bbox="-347 -356 1992 1830" cap-height="1399" descent="-400" panose-1="2 15 5 2 2 2 4 3 2 3" underline-position="-497" underline-thickness="87" unicode-range="U+0020-2044" units-per-em="2000" x-height="989"/>
<missing-glyph/>
<glyph glyph-name="space" horiz-adv-x="500" unicode=" "/>
<glyph glyph-name="space" horiz-adv-x="500" unicode=" "/>
<glyph d="M347 1399v-558q0 -44 -2 -86t-5 -84.5t-7.5 -87t-10.5 -95.5h-117q-6 51 -10.5 95.5t-7 87t-4.5 84.5t-2 86v558h166zM139 107q0 26 9 48.5t25.5 39t38.5 26t49 9.5q25 0 47 -9.5t38.5 -26t26.5 -39t10 -48.5t-10 -48t-26.5 -38.5t-38.5 -26t-47 -9.5q-27 0 -49 9.5 t-38.5 26t-25.5 38.5t-9 48z" glyph-name="exclam" horiz-adv-x="525" unicode="!"/>
<glyph d="M275 1399v-283l-15 -151q-5 -31 -18 -48.5t-43 -17.5q-26 0 -40 17.5t-19 48.5l-16 151v283h151zM600 1399v-283l-15 -151q-5 -31 -18 -48.5t-43 -17.5q-26 0 -40 17.5t-19 48.5l-16 151v283h151z" glyph-name="quotedbl" horiz-adv-x="724" unicode='"'/>
<glyph d="M713 859h-241l-64 -318h241zM1082 987l-13 -73q-5 -28 -23 -41.5t-55 -13.5h-135l-63 -318h175q28 0 40.5 -16t6.5 -56l-9 -56h-232l-82 -413h-79q-12 0 -23 6t-18.5 15.5t-10 23.5t0.5 30l69 338h-241l-70 -347q-6 -36 -28 -51t-51 -15h-78l83 413h-142q-28 0 -40 16 t-6 56l7 56h200l63 318h-226l12 73q5 28 23 41.5t55 13.5h155l70 350q6 29 27 45.5t50 16.5h78l-82 -412h241l82 412h78q28 0 44 -18.5t11 -46.5l-71 -347h207z" glyph-name="numbersign" unicode="#"/>
<glyph d="M599 134q64 6 113 28t82.5 56t50.5 79.5t17 99.5q0 49 -18 84.5t-49 61t-73 43.5t-90 34zM566 1263q-63 -6 -109.5 -25.5t-76.5 -49t-45 -66t-15 -76.5q0 -47 17 -81.5t46 -61t68 -46t85 -35.5zM644 788q70 -22 138.5 -47.5t123 -65.5t88 -100t33.5 -150q0 -88 -29 -165 t-85.5 -136t-138 -95.5t-185.5 -43.5l-12 -171q-1 -18 -14.5 -32t-34.5 -14h-64l15 219q-119 12 -216 59.5t-167 120.5l52 80q8 11 20 17.5t25 6.5q19 0 42.5 -18.5t58 -42t82 -45.5t113.5 -30l35 518q-68 21 -134 46.5t-118 67.5t-84 104.5t-32 156.5q0 72 28 139.5 t81.5 120.5t132 86.5t178.5 37.5l10 141q1 18 14 33t35 15h64l-12 -193q101 -12 175.5 -52.5t132.5 -97.5l-42 -65q-19 -29 -45 -29q-13 0 -33.5 12t-48 29t-65 32.5t-85.5 23.5z" glyph-name="dollar" unicode="$"/>
<glyph d="M705 1062q0 -83 -25.5 -147.5t-68 -109t-98.5 -68t-118 -23.5q-66 0 -122.5 23.5t-98 68t-65 109t-23.5 147.5q0 84 23.5 149t65 110t98 68.5t122.5 23.5t122.5 -23.5t98.5 -68.5t65.5 -110t23.5 -149zM570 1062q0 64 -13.5 109t-37.5 73.5t-56 41.5t-68 13 q-37 0 -68 -13t-54.5 -41.5t-37 -73.5t-13.5 -109t13.5 -108.5t37 -72t54.5 -40t68 -12.5q36 0 68 12.5t56 40t37.5 72t13.5 108.5zM1200 1370q10 12 23 20.5t36 8.5h126l-1024 -1371q-8 -12 -22 -20t-33 -8h-128zM1479 330q0 -82 -25 -146.5t-67.5 -109t-99 -68 t-118.5 -23.5q-66 0 -122.5 23.5t-98 68t-65 109t-23.5 146.5q0 84 23.5 150t65 111t98 68.5t122.5 23.5q65 0 122.5 -23.5t99 -68.5t65 -111t23.5 -150zM1345 330q0 65 -14 110t-37.5 73.5t-56 41t-68.5 12.5t-68 -12.5t-55.5 -41t-36.5 -73.5t-13 -110q0 -63 13 -107 t36.5 -72t55.5 -40t68 -12t68.5 12t56 40t37.5 72t14 107z" glyph-name="percent" horiz-adv-x="1565" unicode="%"/>
<glyph d="M472 689q-104 -54 -156 -132t-52 -170q0 -64 23.5 -112t61.5 -81.5t86.5 -50.5t99.5 -17q110 0 197 40t153 107zM1374 0h-169q-28 0 -45.5 7t-38.5 28l-142 143q-91 -89 -211 -141.5t-263 -52.5q-78 0 -153 26.5t-134.5 77t-95.5 122.5t-36 163q0 68 23 129t64 113 t96.5 93t122.5 70q-60 76 -88.5 147t-28.5 147q0 72 26 134.5t75 108.5t118.5 73t156.5 27q78 0 141 -25t109 -66t73 -95t31 -113l-109 -21q-32 -8 -47 30q-7 25 -22 52.5t-39 50t-58 37t-79 14.5q-48 0 -88 -15.5t-67.5 -43.5t-42.5 -65.5t-15 -81.5q0 -34 8 -65t25 -63.5 t43.5 -65.5t63.5 -70l402 -410q38 67 60 138.5t29 143.5q2 18 12 29t27 11h107q-1 -113 -35 -220.5t-99 -202.5z" glyph-name="ampersand" horiz-adv-x="1391" unicode="&amp;"/>
<glyph d="M275 1399v-283l-15 -151q-5 -31 -18 -48.5t-43 -17.5q-26 0 -40 17.5t-19 48.5l-16 151v283h151z" glyph-name="quotesingle" horiz-adv-x="398" unicode="'"/>
<glyph d="M239 614q0 -209 53.5 -406t155.5 -375q16 -30 8 -46t-22 -26l-78 -47q-73 112 -124 222.5t-83 222t-46.5 224t-14.5 231.5q0 118 14.5 231.5t46.5 224.5t83 221t124 224l78 -48q14 -10 22 -26t-8 -45q-102 -178 -155.5 -375.5t-53.5 -406.5z" glyph-name="parenleft" horiz-adv-x="521" unicode="("/>
<glyph d="M282 614q0 209 -53 406.5t-156 375.5q-8 14 -9.5 25.5t1 19.5t9 14.5t14.5 11.5l77 48q73 -114 124.5 -224t83 -221t46.5 -224.5t15 -231.5q0 -119 -15 -231.5t-46.5 -224t-83 -222t-124.5 -222.5l-77 47q-8 5 -14.5 11t-9 14.5t-1 20t9.5 26.5q103 178 156 375t53 406z " glyph-name="parenright" horiz-adv-x="521" unicode=")"/>
<glyph d="M710 1034l-43 -73l-169 98q-18 10 -31.5 21t-24.5 27q16 -32 16 -71v-193h-86v192q0 20 2.5 36.5t10.5 32.5q-11 -14 -23.5 -25t-29.5 -20l-168 -97l-43 73l168 98q37 22 74 23q-19 2 -37 7.5t-37 17.5l-169 98l43 74l169 -98q18 -11 31.5 -22.5t24.5 -28.5 q-16 34 -16 73v194h86v-193q0 -19 -2.5 -36t-10.5 -33q11 14 23.5 24.5t29.5 21.5l168 97l43 -74l-168 -97q-17 -11 -33.5 -17t-34.5 -8q18 -2 34.5 -7t33.5 -16z" glyph-name="asterisk" horiz-adv-x="830" unicode="*"/>
<glyph d="M1035 590h-398v-420h-142v420h-396v132h396v417h142v-417h398v-132z" glyph-name="plus" unicode="+"/>
<glyph d="M127 -236q-8 7 -11 12.5t-3 14.5q0 7 4.5 14t10.5 12q10 11 25 28.5t30.5 41.5t29 53t18.5 61q-2 -1 -5.5 -1h-6.5q-51 0 -83 33.5t-32 86.5q0 46 32 78t85 32q29 0 51.5 -10.5t37.5 -29.5t23 -44t8 -54q0 -44 -12.5 -91.5t-36 -94t-58 -90.5t-78.5 -81z" glyph-name="comma" horiz-adv-x="443" unicode=","/>
<glyph d="M108 107q0 26 9.5 48.5t25.5 39t38.5 26t47.5 9.5q26 0 48.5 -9.5t39 -26t26.5 -39t10 -48.5t-10 -48t-26.5 -38.5t-39 -26t-48.5 -9.5q-25 0 -47.5 9.5t-38.5 26t-25.5 38.5t-9.5 48z" glyph-name="period" horiz-adv-x="461" unicode="."/>
<glyph d="M233 -21q-12 -34 -39 -50.5t-55 -16.5h-74l587 1462q12 31 36 47.5t55 16.5h74z" glyph-name="slash" horiz-adv-x="883" unicode="/"/>
<glyph d="M1074 699q0 -183 -39.5 -317.5t-108 -222.5t-161.5 -131t-200 -43t-199.5 43t-160.5 131t-107 222.5t-39 317.5q0 184 39 318.5t107 223t160.5 131.5t199.5 43t200 -43t161.5 -131.5t108 -223t39.5 -318.5zM894 699q0 160 -27 269t-72.5 175.5t-105 95.5t-124.5 29 q-64 0 -123.5 -29t-104.5 -95.5t-72 -175.5t-27 -269t27 -268.5t72 -175t104.5 -95t123.5 -28.5q65 0 124.5 28.5t105 95t72.5 175t27 268.5z" glyph-name="zero" unicode="0"/>
<glyph d="M994 133v-133h-750v133h300v954q0 43 3 87l-249 -214q-13 -11 -25.5 -13.5t-23.5 -0.5t-20 8t-14 13l-55 75l417 360h142v-1269h275z" glyph-name="one" unicode="1"/>
<glyph d="M964 165q28 0 44.5 -16.5t16.5 -43.5v-105h-933v60q0 18 7.5 37.5t24.5 36.5l448 450q56 57 102 109t78 105t49.5 107t17.5 116q0 61 -19.5 107.5t-53 76.5t-79.5 45.5t-99 15.5t-98 -16t-80 -43.5t-58 -65.5t-33 -84q-12 -35 -32 -46t-56 -6l-91 16q14 95 53.5 169 t99.5 123.5t137 75.5t167 26q89 0 166 -26.5t134 -76.5t89 -122.5t32 -164.5q0 -78 -23.5 -145t-63.5 -127.5t-92 -118t-111 -115.5l-369 -377q39 10 79 16.5t77 6.5h469z" glyph-name="two" unicode="2"/>
<glyph d="M127 1021q14 95 53 169t99 123.5t137.5 75.5t167.5 26q89 0 164 -25.5t129.5 -72t84.5 -113t30 -147.5q0 -67 -17 -119t-48.5 -91t-76.5 -66.5t-101 -45.5q137 -35 205.5 -120.5t68.5 -213.5q0 -96 -36.5 -173.5t-100 -131.5t-148 -83t-180.5 -29q-112 0 -191 28 t-133.5 77t-90 115.5t-59.5 145.5l75 31q29 13 57 7t41 -33t32 -65t52 -73t84.5 -59.5t130.5 -24.5q73 0 128 24t91.5 62t55.5 85t19 92q0 57 -15 104t-55 81t-109.5 53.5t-179.5 19.5v126q90 1 153 19.5t102.5 51t57.5 77.5t18 99q0 61 -19 106t-52 74t-78.5 44t-98.5 15 t-98 -16t-80 -43.5t-58.5 -65.5t-32.5 -84q-13 -35 -32 -46t-55 -6z" glyph-name="three" unicode="3"/>
<glyph d="M713 505v577q0 25 2 55.5t6 61.5l-510 -694h502zM1077 505v-100q0 -15 -9 -26t-29 -11h-174v-368h-152v368h-621q-20 0 -34 11.5t-18 27.5l-18 89l681 903h162v-894h212z" glyph-name="four" unicode="4"/>
<glyph d="M354 871q109 24 201 24q109 0 193 -32.5t140 -89t85 -134t29 -167.5q0 -112 -38.5 -201.5t-106.5 -153.5t-160 -98.5t-198 -34.5q-62 0 -118.5 12.5t-105.5 33t-91 47t-75 55.5l54 74q18 25 46 25q20 0 44 -15t59.5 -33.5t82.5 -33.5t113 -15q73 0 131.5 23.5t100.5 67 t64.5 104t22.5 135.5q0 65 -19 118t-57.5 90t-96 57.5t-134.5 20.5q-53 0 -110 -9t-117 -28l-109 32l112 654h663v-76q0 -37 -23 -61t-79 -24h-439z" glyph-name="five" unicode="5"/>
<glyph d="M564 129q71 0 128 22.5t97.5 62.5t62.5 94.5t22 119.5q0 68 -21.5 123t-61 94t-94 59.5t-120.5 20.5q-70 0 -126.5 -24t-96.5 -64.5t-61 -94t-21 -110.5q0 -68 20 -123.5t57.5 -95.5t91.5 -62t123 -22zM463 875q-19 -23 -36 -45t-32 -44q49 34 108.5 52.5t130.5 18.5 q85 0 160 -27.5t131 -81t89.5 -131t33.5 -177.5q0 -96 -35 -179t-98 -144.5t-151.5 -97t-195.5 -35.5q-105 0 -191 34t-146 96t-93 150.5t-33 197.5q0 92 41 196t129 222l356 477q14 18 37.5 30t55.5 12h154z" glyph-name="six" unicode="6"/>
<glyph d="M1056 1399v-78q0 -33 -7.5 -54.5t-14.5 -36.5l-580 -1168q-13 -26 -35.5 -44t-59.5 -18h-125l588 1154q13 25 26.5 45.5t29.5 38.5h-731q-16 0 -29 13.5t-13 29.5v118h951z" glyph-name="seven" unicode="7"/>
<glyph d="M566 123q69 0 123 19t91.5 53.5t57.5 83t20 107.5q0 72 -23.5 123.5t-64.5 83.5t-93.5 47t-110.5 15q-57 0 -110 -15t-93.5 -47t-64.5 -83.5t-24 -123.5q0 -59 20 -107.5t58 -83t92 -53.5t122 -19zM566 1280q-62 0 -109.5 -18.5t-79 -50.5t-48 -75t-16.5 -92 q0 -48 14 -93t44 -79.5t78.5 -55.5t116.5 -21q69 0 117 21t78.5 55.5t44 79.5t13.5 93q0 49 -16 92t-47.5 75t-79 50.5t-110.5 18.5zM767 729q130 -37 200.5 -123.5t70.5 -222.5q0 -92 -34.5 -165.5t-96.5 -125.5t-149 -80t-192 -28q-104 0 -191 28t-149.5 80t-96.5 125.5 t-34 165.5q0 136 70 222.5t201 123.5q-110 42 -166 123.5t-56 194.5q0 77 30 144.5t85.5 117t133.5 78t173 28.5t173 -28.5t134 -78t86 -117t30 -144.5q0 -113 -56 -194.5t-166 -123.5z" glyph-name="eight" unicode="8"/>
<glyph d="M276 988q0 -66 19 -118.5t55 -88.5t87 -54.5t115 -18.5q70 0 124 23t91.5 61t57 88t19.5 103q0 66 -21 119t-58 90t-88.5 57.5t-113.5 20.5q-64 0 -116.5 -21t-91 -58.5t-59 -89t-20.5 -113.5zM683 558q21 28 39.5 53.5t35.5 50.5q-54 -43 -121.5 -65.5t-142.5 -22.5 q-79 0 -150 26.5t-124.5 77.5t-85 126t-31.5 172q0 91 34 171.5t95.5 140t146.5 93.5t186 34t183 -33t140.5 -93t90.5 -143t32 -183q0 -61 -11.5 -115t-32.5 -106.5t-51 -103.5t-68 -105l-341 -492q-13 -19 -36.5 -30t-53.5 -11h-160z" glyph-name="nine" unicode="9"/>
<glyph d="M122 107q0 26 9.5 48.5t25.5 39t38.5 26t47.5 9.5q26 0 48.5 -9.5t39 -26t26.5 -39t10 -48.5t-10 -48t-26.5 -38.5t-39 -26t-48.5 -9.5q-25 0 -47.5 9.5t-38.5 26t-25.5 38.5t-9.5 48zM122 839q0 26 9.5 48.5t25.5 39t38.5 26t47.5 9.5q26 0 48.5 -9.5t39 -26t26.5 -39 t10 -48.5t-10 -48t-26.5 -38.5t-39 -26t-48.5 -9.5q-25 0 -47.5 9.5t-38.5 26t-25.5 38.5t-9.5 48z" glyph-name="colon" horiz-adv-x="488" unicode=":"/>
<glyph d="M160 -236q-8 7 -11 12.5t-3 14.5q0 7 4.5 14t10.5 12q10 11 25 28.5t30.5 41.5t29 53t18.5 61q-2 -1 -5.5 -1h-6.5q-51 0 -83 33.5t-32 86.5q0 46 32 78t85 32q29 0 51.5 -10.5t37.5 -29.5t23 -44t8 -54q0 -44 -12.5 -91.5t-36 -94t-58 -90.5t-78.5 -81zM132 839 q0 26 9.5 48.5t25.5 39t38.5 26t47.5 9.5q26 0 48.5 -9.5t39 -26t26.5 -39t10 -48.5t-10 -48t-26.5 -38.5t-39 -26t-48.5 -9.5q-25 0 -47.5 9.5t-38.5 26t-25.5 38.5t-9.5 48z" glyph-name="semicolon" horiz-adv-x="511" unicode=";"/>
<glyph d="M439 687q-19 -9 -41 -17t-47 -13q25 -6 47 -13t41 -18l439 -222q19 -9 27 -22t8 -28v-125l-755 392v72l755 392v-124q0 -17 -8 -29t-27 -22z" glyph-name="less" unicode="&lt;"/>
<glyph d="M146 561h840v-132h-840v132zM146 888h840v-132h-840v132z" glyph-name="equal" unicode="="/>
<glyph d="M975 693v-72l-755 -392v125q0 15 7.5 28t27.5 22l438 222q20 11 42 18t46 13q-50 11 -88 30l-438 223q-20 10 -27.5 22t-7.5 29v124z" glyph-name="greater" unicode="&gt;"/>
<glyph d="M79 1274q30 29 67 54.5t80.5 45t93.5 30.5t109 11q77 0 143 -22.5t113.5 -63.5t75 -99.5t27.5 -131.5q0 -75 -22 -128.5t-55.5 -94t-73 -70.5t-75 -56t-60 -52.5t-28.5 -58.5l-18 -150h-119l-12 162q-4 44 16.5 77t54 61.5t73.5 56.5t74.5 62t58 77.5t23.5 104.5 q0 42 -16.5 76t-45 58t-67 36.5t-82.5 12.5q-60 0 -102 -14.5t-71.5 -32t-47.5 -32t-30 -14.5q-24 0 -38 22zM270 107q0 26 9 48.5t25 39t38.5 26t48.5 9.5q25 0 47.5 -9.5t39 -26t26.5 -39t10 -48.5t-10 -48t-26.5 -38.5t-39 -26t-47.5 -9.5q-26 0 -48.5 9.5t-38.5 26 t-25 38.5t-9 48z" glyph-name="question" horiz-adv-x="874" unicode="?"/>
<glyph d="M1030 803q-38 9 -84 9q-73 0 -134 -31t-105 -81t-69 -114.5t-25 -131.5q0 -70 32.5 -112.5t95.5 -42.5q30 0 61 9.5t60 34t53 66.5t41 106zM1091 530q-20 -74 -19 -120.5t15.5 -72.5t39.5 -35.5t56 -9.5q47 0 90 27.5t76 77t52 119.5t19 155q0 135 -43 236.5 t-118.5 169.5t-178.5 101.5t-223 33.5q-130 0 -244.5 -50t-199.5 -137.5t-134.5 -208t-49.5 -261.5q0 -166 52.5 -291.5t143 -210.5t212.5 -128t261 -43q149 0 262.5 32t196.5 82q20 12 34.5 7.5t21.5 -22.5l25 -64q-105 -70 -238.5 -110t-301.5 -40q-169 0 -315 53.5 t-252.5 154.5t-167.5 247.5t-61 332.5q0 106 26.5 204.5t75.5 184t117.5 156.5t152.5 121t181 78t202 28q90 0 176 -19.5t162.5 -57.5t140.5 -94t111 -129t73 -162.5t26 -193.5q0 -106 -30 -195t-82 -154.5t-123.5 -102.5t-153.5 -37q-74 0 -122.5 36.5t-61.5 111.5 q-56 -78 -122.5 -112t-143.5 -34q-58 0 -101.5 20t-71.5 55.5t-42 84.5t-14 105q0 83 31.5 167.5t94 152.5t155.5 111t215 43q65 0 115 -10.5t94 -29.5z" glyph-name="at" horiz-adv-x="1634" unicode="@"/>
<glyph d="M922 520l-220 569q-10 25 -20.5 59t-20.5 72q-20 -79 -42 -132l-220 -568h523zM1316 0h-146q-25 0 -41 12.5t-24 32.5l-130 338h-628l-131 -338q-6 -18 -22.5 -31.5t-41.5 -13.5h-146l559 1399h192z" glyph-name="A" horiz-adv-x="1322" unicode="A"/>
<glyph d="M670 150q81 0 139.5 18.5t96 52.5t55.5 80.5t18 101.5q0 109 -77.5 172t-231.5 63h-303v-488h303zM367 1250v-478h250q80 0 139 18t98 49t57.5 75.5t18.5 97.5q0 124 -74.5 181t-230.5 57h-258zM625 1399q129 0 222 -25t153.5 -72t88.5 -115t28 -153q0 -52 -16 -99 t-48 -88t-81.5 -74t-116.5 -53q155 -30 232.5 -110.5t77.5 -211.5q0 -88 -32.5 -161.5t-95.5 -126t-155 -81.5t-209 -29h-494v1399h446z" glyph-name="B" horiz-adv-x="1263" unicode="B"/>
<glyph d="M1161 289q16 0 27 -13l76 -81q-86 -99 -208.5 -155t-296.5 -56q-151 0 -274 52.5t-210 146.5t-134.5 226t-47.5 290t49.5 290t140 227t216.5 147t278 52q150 0 264 -48t201 -130l-62 -87q-6 -9 -15.5 -15.5t-24.5 -6.5q-18 0 -43.5 19t-66.5 42.5t-102.5 42.5t-151.5 19 q-108 0 -198 -37.5t-155 -109t-101 -174t-36 -231.5q0 -131 37.5 -233.5t102.5 -173t153.5 -108t191.5 -37.5q62 0 112.5 7.5t93 23t79 39.5t72.5 57q17 15 33 15z" glyph-name="C" horiz-adv-x="1305" unicode="C"/>
<glyph d="M1392 699q0 -157 -50 -286t-141 -220.5t-218.5 -142t-281.5 -50.5h-522v1399h522q154 0 281.5 -50t218.5 -142.5t141 -221.5t50 -286zM1197 699q0 129 -35 230.5t-99.5 172t-156.5 107.5t-205 37h-333v-1093h333q113 0 205 37.5t156.5 107t99.5 171t35 230.5z" glyph-name="D" horiz-adv-x="1485" unicode="D"/>
<glyph d="M1042 154l-1 -154h-862v1399h862v-154h-673v-465h545v-148h-545v-478h674z" glyph-name="E" horiz-adv-x="1128" unicode="E"/>
<glyph d="M368 1245v-489h575v-154h-575v-602h-189v1399h862v-154h-673z" glyph-name="F" horiz-adv-x="1104" unicode="F"/>
<glyph d="M1315 673v-537q-105 -76 -224.5 -114t-262.5 -38q-169 0 -304.5 52.5t-232 146.5t-148 226t-51.5 290q0 160 50 292t143 226.5t226 146t297 51.5q83 0 154 -12t131.5 -35t112.5 -56t97 -74l-54 -86q-13 -19 -33 -24.5t-44 9.5q-24 13 -54 32.5t-73.5 38t-102.5 31 t-140 12.5q-118 0 -214 -38.5t-163.5 -110.5t-103.5 -174t-36 -229q0 -132 37.5 -236t107.5 -176.5t169.5 -110.5t223.5 -38q98 0 173.5 22t148.5 61v307h-218q-19 0 -30 11t-11 26v108h429z" glyph-name="G" horiz-adv-x="1427" unicode="G"/>
<glyph d="M1312 1399v-1399h-189v637h-755v-637h-189v1399h189v-624h755v624h189z" glyph-name="H" horiz-adv-x="1491" unicode="H"/>
<glyph d="M368 0h-189v1399h189v-1399z" glyph-name="I" horiz-adv-x="547" unicode="I"/>
<glyph d="M661 483q0 -117 -28.5 -209.5t-85 -156.5t-138.5 -98.5t-188 -34.5q-97 0 -198 28q2 28 5 56t5 55q2 17 12.5 27t31.5 10q18 0 46.5 -8.5t77.5 -8.5q65 0 115.5 19.5t85 60.5t52.5 105t18 151v920h189v-916z" glyph-name="J" horiz-adv-x="825" unicode="J"/>
<glyph d="M367 786h71q38 0 60.5 9.5t40.5 31.5l466 527q19 26 40.5 35.5t53.5 9.5h160l-533 -602q-20 -24 -38 -39t-39 -25q27 -8 48.5 -25.5t41.5 -44.5l557 -663h-164q-19 0 -32 2.5t-23 8t-17 12.5t-14 17l-483 556q-19 24 -41.5 34.5t-68.5 10.5h-86v-641h-188v1399h188v-613z " glyph-name="K" horiz-adv-x="1294" unicode="K"/>
<glyph d="M973 159v-159h-794v1399h188v-1240h606z" glyph-name="L" horiz-adv-x="1003" unicode="L"/>
<glyph d="M1635 1399v-1399h-166v1028q0 21 1.5 44.5t3.5 47.5l-481 -875q-22 -44 -68 -44h-28q-45 0 -68 44l-490 879q6 -52 6 -96v-1028h-166v1399h139q26 0 39.5 -4.5t26.5 -27.5l483 -861q12 -24 23 -49t21 -52q10 27 20.5 52.5t23.5 49.5l475 860q11 23 25.5 27.5t39.5 4.5 h140z" glyph-name="M" horiz-adv-x="1813" unicode="M"/>
<glyph d="M1312 1399v-1399h-94q-23 0 -38 8t-30 26l-809 1055q2 -25 3 -48t1 -44v-997h-166v1399h97q13 0 22 -1.5t15.5 -4.5t13.5 -9.5t15 -16.5l809 -1054q-2 26 -3.5 50t-1.5 45v991h166z" glyph-name="N" horiz-adv-x="1491" unicode="N"/>
<glyph d="M1472 699q0 -157 -50 -288.5t-141 -226t-218 -147t-282 -52.5q-154 0 -281 52.5t-218 147t-140.5 226t-49.5 288.5t49.5 288.5t140.5 227t218 148t281 52.5q155 0 282 -52.5t218 -148t141 -227t50 -288.5zM1277 699q0 129 -35 231.5t-99.5 173.5t-156 109t-205.5 38 q-112 0 -204 -38t-157 -109t-100 -173.5t-35 -231.5t35 -231t100 -172.5t157 -108.5t204 -38q114 0 205.5 38t156 108.5t99.5 172.5t35 231z" glyph-name="O" horiz-adv-x="1563" unicode="O"/>
<glyph d="M592 674q81 0 143 21.5t104.5 60t64 92t21.5 118.5q0 134 -82.5 209t-250.5 75h-225v-576h225zM592 1399q133 0 231 -30.5t162.5 -87t96 -137t31.5 -178.5t-34 -179t-100 -139.5t-163 -91.5t-224 -33h-225v-523h-188v1399h413z" glyph-name="P" horiz-adv-x="1173" unicode="P"/>
<glyph d="M286 699q0 -129 35 -231t100 -172.5t157 -108.5t204 -38q114 0 205.5 38t156 108.5t99.5 172.5t35 231t-35 231.5t-99.5 173.5t-156 109t-205.5 38q-112 0 -204 -38t-157 -109t-100 -173.5t-35 -231.5zM1537 -289h-156q-35 0 -62.5 9.5t-49.5 34.5l-246 267 q-111 -37 -241 -37q-154 0 -281 52.5t-218 147t-140.5 226t-49.5 288.5t49.5 288.5t140.5 227t218 148t281 52.5q155 0 282 -52.5t218 -148t141 -227t50 -288.5q0 -98 -20 -187t-58.5 -165.5t-93 -139t-122.5 -108.5z" glyph-name="Q" horiz-adv-x="1563" unicode="Q"/>
<glyph d="M566 722q82 0 145 20t105.5 56.5t64 87.5t21.5 112q0 125 -82 188.5t-246 63.5h-207v-528h199zM1213 0h-168q-52 0 -76 40l-364 500q-16 23 -35 33.5t-59 10.5h-144v-584h-188v1399h395q133 0 229.5 -26.5t159.5 -77.5t93.5 -122.5t30.5 -160.5q0 -75 -23.5 -139 t-68 -115.5t-108.5 -87.5t-145 -55q36 -20 63 -59z" glyph-name="R" horiz-adv-x="1224" unicode="R"/>
<glyph d="M895 1181q-9 -15 -19.5 -22.5t-24.5 -7.5q-17 0 -39.5 17t-56 37t-81 36.5t-114.5 16.5q-64 0 -112.5 -17t-81 -46.5t-49 -69t-16.5 -85.5q0 -59 28.5 -97.5t76 -65.5t107.5 -47t123 -41.5t123 -48.5t107.5 -68t76.5 -100.5t29 -146.5q0 -92 -31.5 -172.5t-91.5 -140 t-147.5 -94t-198.5 -34.5q-137 0 -248 49.5t-191 133.5l55 90q8 11 19 18t25 7q13 0 29 -10t36.5 -26t47 -34.5t60 -34t76.5 -25.5t97 -10q67 0 120 18.5t89.5 52t56 80.5t19.5 104q0 64 -29 104.5t-75.5 68t-107.5 46.5t-123.5 39t-123 46.5t-107 68.5t-75.5 104.5 t-29 155.5q0 74 29 143.5t84 123.5t135.5 86t185.5 32q117 0 213 -37t169 -107z" glyph-name="S" horiz-adv-x="1060" unicode="S"/>
<glyph d="M1125 1240h-453v-1240h-189v1240h-454v159h1096v-159z" glyph-name="T" horiz-adv-x="1153" unicode="T"/>
<glyph d="M719 150q87 0 155 29.5t115.5 82t72.5 126t25 161.5v850h188v-850q0 -121 -38.5 -224.5t-110 -179.5t-175 -119t-232.5 -43t-232.5 43t-176 119t-111 179.5t-38.5 224.5v850h189v-849q0 -88 24.5 -161.5t72 -126t116.5 -82.5t156 -30z" glyph-name="U" horiz-adv-x="1437" unicode="U"/>
<glyph d="M1316 1399l-570 -1399h-170l-570 1399h151q26 0 41.5 -12.5t23.5 -32.5l394 -987q13 -33 25 -72t22 -82q10 43 20.5 82t23.5 72l394 987q5 17 22.5 31t41.5 14h151z" glyph-name="V" horiz-adv-x="1322" unicode="V"/>
<glyph d="M1992 1399l-436 -1399h-170l-355 1067q-5 16 -9 33.5t-9 37.5q-5 -20 -10 -37.5t-10 -33.5l-356 -1067h-170l-437 1399h157q26 0 43 -12.5t22 -32.5l289 -972q7 -27 13.5 -57t11.5 -64q7 34 14.5 64.5t16.5 56.5l329 972q6 17 23 31t41 14h55q25 0 41 -12.5t23 -32.5 l328 -972q9 -26 16.5 -55t14.5 -61q5 32 10.5 61t12.5 55l290 972q5 18 22 31.5t42 13.5h147z" glyph-name="W" horiz-adv-x="2022" unicode="W"/>
<glyph d="M1246 0h-187q-22 0 -34 11t-20 25l-375 588q-8 -23 -18 -40l-365 -548q-10 -14 -21 -25t-31 -11h-175l481 719l-462 680h189q20 0 30 -6.5t17 -19.5l366 -561q6 21 20 45l345 512q8 14 18.5 22t25.5 8h180l-463 -671z" glyph-name="X" horiz-adv-x="1268" unicode="X"/>
<glyph d="M704 558v-558h-189v558l-513 841h166q25 0 40 -12t25 -32l321 -543q17 -35 32 -64.5t25 -60.5q11 31 24.5 60.5t30.5 64.5l319 543q9 17 24.5 30.5t40.5 13.5h167z" glyph-name="Y" horiz-adv-x="1219" unicode="Y"/>
<glyph d="M1112 1329q0 -32 -19 -62l-792 -1113h800v-154h-1049v74q0 16 5 29.5t13 26.5l794 1115h-775v154h1023v-70z" glyph-name="Z" horiz-adv-x="1176" unicode="Z"/>
<glyph d="M324 1383v-1550h165q22 0 35 -13.5t13 -33.5v-68h-359v1779h359v-68q0 -20 -13 -33t-35 -13h-165z" glyph-name="bracketleft" horiz-adv-x="598" unicode="["/>
<glyph d="M65 1438h75q31 0 55 -16.5t35 -47.5l587 -1462h-73q-28 0 -55.5 16.5t-39.5 50.5z" glyph-name="backslash" horiz-adv-x="883" unicode="\"/>
<glyph d="M420 -282h-359v68q0 20 13 33.5t34 13.5h165v1550h-165q-21 0 -34 13t-13 33v68h359v-1779z" glyph-name="bracketright" horiz-adv-x="598" unicode="]"/>
<glyph d="M1004 680h-127q-17 0 -29 9t-19 24l-225 433q-25 51 -39 94q-6 -22 -15 -45.5t-20 -48.5l-218 -433q-5 -14 -18 -23.5t-32 -9.5h-133l379 719h112z" glyph-name="asciicircum" unicode="^"/>
<glyph d="M833 -161v-117h-770v117h770z" glyph-name="underscore" horiz-adv-x="896" unicode="_"/>
<glyph d="M293 1415q32 0 47.5 -10t29.5 -33l146 -236h-100q-20 0 -33 6t-27 21l-228 252h165z" glyph-name="grave" horiz-adv-x="781" unicode="`"/>
<glyph d="M674 445q-120 -4 -204.5 -19t-138 -39.5t-77.5 -57.5t-24 -74q0 -39 13 -67.5t35 -46.5t51.5 -26.5t64.5 -8.5q45 0 83.5 9.5t72 27t64.5 42t60 55.5v205zM112 850q82 79 177 118t210 39q83 0 147.5 -27.5t108.5 -76.5t66.5 -118t22.5 -152v-633h-77q-26 0 -39.5 8.5 t-21.5 32.5l-19 94q-40 -36 -77 -64t-78 -47t-87.5 -29.5t-102.5 -10.5q-58 0 -108.5 16.5t-88.5 48.5t-60 81.5t-22 116.5q0 59 32.5 113t104.5 96t188.5 69t285.5 31v77q0 115 -50 174t-145 59q-65 0 -108.5 -16t-75 -36t-54.5 -36t-46 -16q-17 0 -30 9t-21 23z" glyph-name="a" horiz-adv-x="971" unicode="a"/>
<glyph d="M312 238q48 -64 105.5 -90.5t125.5 -26.5q140 0 214 98.5t74 294.5q0 181 -66 266.5t-188 85.5q-85 0 -148 -39t-117 -110v-479zM312 847q63 72 141.5 115t181.5 43q87 0 156.5 -33.5t118.5 -96.5t75 -152.5t26 -201.5q0 -121 -29.5 -219.5t-84.5 -168.5t-134 -108.5 t-178 -38.5q-98 0 -164.5 37t-116.5 104l-9 -90q-8 -37 -45 -37h-112v1438h174v-591z" glyph-name="b" horiz-adv-x="1094" unicode="b"/>
<glyph d="M826 813q-8 -10 -15.5 -16t-21.5 -6q-15 0 -32.5 12t-43.5 27t-63.5 27t-91.5 12q-74 0 -129.5 -26t-93 -74.5t-56.5 -118t-19 -155.5q0 -90 20.5 -159.5t58 -117t90.5 -72.5t120 -25q63 0 104 15t68 33.5t45 34t36 15.5q21 0 33 -17l49 -63q-32 -40 -73 -68.5 t-88.5 -47.5t-99.5 -28t-105 -9q-93 0 -172.5 34.5t-138.5 99.5t-92 159.5t-33 215.5q0 110 31 204t90 162t145.5 106t198.5 38q104 0 184 -34t141 -95z" glyph-name="c" horiz-adv-x="933" unicode="c"/>
<glyph d="M782 754q-49 65 -105.5 91t-126.5 26q-138 0 -212 -98.5t-74 -281.5q0 -96 16.5 -165t48.5 -113.5t79 -65t107 -20.5q86 0 150 39t117 110v478zM956 1438v-1438h-103q-38 0 -47 36l-16 120q-63 -76 -144.5 -123t-187.5 -47q-85 0 -154.5 33t-118 96.5t-75 158 t-26.5 217.5q0 110 29.5 204t84 163.5t134 109t179.5 39.5q91 0 155.5 -31t115.5 -85v547h174z" glyph-name="d" horiz-adv-x="1094" unicode="d"/>
<glyph d="M800 603q0 60 -17 110.5t-50 87t-80 56.5t-106 20q-125 0 -198 -73t-90 -201h541zM940 139q-32 -39 -77 -68t-96 -47.5t-106 -28t-108 -9.5q-103 0 -189.5 35t-149.5 101.5t-98 165.5t-35 227q0 103 32 193t91.5 156t145.5 103.5t193 37.5q89 0 164.5 -30t131 -86 t86.5 -138.5t31 -188.5q0 -41 -9 -54.5t-33 -13.5h-661q3 -94 26 -163t64 -115.5t97.5 -69.5t126.5 -23q66 0 113.5 15t81.5 32.5t57 33t39 15.5q22 0 34 -17z" glyph-name="e" horiz-adv-x="1031" unicode="e"/>
<glyph d="M202 0v841l-109 13q-21 4 -34 14.5t-13 29.5v72h156v95q0 85 24 151t68.5 111.5t107 69t140.5 23.5q66 0 122 -20l-4 -87q-2 -23 -26 -25t-64 -2q-45 0 -81.5 -11.5t-63 -38t-40.5 -69.5t-14 -106v-91h285v-126h-279v-844h-175z" glyph-name="f" horiz-adv-x="685" unicode="f"/>
<glyph d="M482 483q53 0 93 15t67.5 41t41 63t13.5 81q0 90 -55 144t-160 54t-160 -54t-55 -144q0 -44 14 -81t41.5 -63t67.5 -41t92 -15zM796 -54q0 36 -20.5 58.5t-55 35.5t-80.5 18t-97.5 8t-104 6t-101.5 10q-55 -25 -89.5 -64t-34.5 -90q0 -33 17 -62t52 -50t88.5 -33 t125.5 -12q70 0 126 12.5t94.5 36t59 55.5t20.5 71zM973 950v-64q0 -32 -41 -41l-113 -15q34 -64 34 -143q0 -72 -28 -131t-77 -101t-117.5 -64.5t-148.5 -22.5q-69 0 -130 17q-32 -20 -48.5 -42t-16.5 -44q0 -35 29 -53t75.5 -26t107 -10t123.5 -6.5t123 -15t106.5 -35 t75.5 -67.5t29 -111q0 -64 -31.5 -123.5t-91.5 -106t-146 -74t-195 -27.5q-108 0 -189 21.5t-135 57.5t-80.5 83.5t-26.5 98.5q0 74 45.5 124.5t125.5 80.5q-44 20 -69.5 52.5t-25.5 88.5q0 21 7.5 44t24 46t39.5 43.5t55 36.5q-74 41 -115 109t-41 157q0 73 28 132 t78 100.5t118.5 64t150.5 22.5q65 0 120.5 -14t101.5 -42h269z" glyph-name="g" horiz-adv-x="1016" unicode="g"/>
<glyph d="M312 857q64 68 141 108t178 40q81 0 143 -27t103.5 -76t63 -118.5t21.5 -153.5v-630h-175v630q0 112 -51 174t-156 62q-77 0 -144 -37t-124 -100v-729h-174v1438h174v-581z" glyph-name="h" horiz-adv-x="1090" unicode="h"/>
<glyph d="M321 989v-989h-174v989h174zM358 1300q0 -26 -10 -48t-27 -39t-40 -26.5t-49 -9.5q-25 0 -47 9.5t-38.5 26.5t-26.5 39t-10 48q0 25 10 48t26.5 40t38.5 27t47 10q26 0 49 -10t40 -27t27 -40t10 -48z" glyph-name="i" horiz-adv-x="469" unicode="i"/>
<glyph d="M321 989v-1062q0 -60 -15.5 -111t-49.5 -89.5t-87.5 -60t-127.5 -21.5q-31 0 -57.5 4.5t-52.5 14.5l6 94q2 9 6.5 13t12.5 5t20 0.5t31 -0.5q76 0 108 36t32 115v1062h174zM357 1300q0 -26 -10 -48t-27 -39t-39.5 -26.5t-48.5 -9.5q-25 0 -47 9.5t-38.5 26.5t-26.5 39 t-10 48q0 25 10 48t26.5 40t38.5 27t47 10q26 0 48.5 -10t39.5 -27t27 -40t10 -48z" glyph-name="j" horiz-adv-x="469" unicode="j"/>
<glyph d="M312 1438v-846h45q20 0 33 5.5t28 21.5l312 335q14 17 29 26t41 9h157l-364 -387q-27 -34 -57 -52q18 -12 32 -27t27 -35l386 -488h-155q-22 0 -38.5 7.5t-27.5 26.5l-325 405q-15 21 -29 27.5t-44 6.5h-50v-473h-174v1438h174z" glyph-name="k" horiz-adv-x="992" unicode="k"/>
<glyph d="M317 1438v-1438h-173v1438h173z" glyph-name="l" horiz-adv-x="461" unicode="l"/>
<glyph d="M138 0v989h104q37 0 46 -36l13 -101q54 67 122.5 110t158.5 43q100 0 162 -55.5t89 -150.5q21 54 55 93t76 64t89.5 37t95.5 12q79 0 140 -25t103.5 -73t64.5 -117.5t22 -159.5v-630h-174v630q0 116 -51 176t-147 60q-43 0 -81.5 -15t-67.5 -44.5t-46 -74t-17 -102.5 v-630h-175v630q0 119 -48 177.5t-140 58.5q-64 0 -119 -34.5t-101 -94.5v-737h-174z" glyph-name="m" horiz-adv-x="1606" unicode="m"/>
<glyph d="M302 846q32 36 68 65t76.5 50t86 32.5t98.5 11.5q81 0 143 -27t103.5 -76t63 -118.5t21.5 -153.5v-630h-175v630q0 112 -51 174t-156 62q-77 0 -144 -37t-124 -100v-729h-174v989h104q37 0 46 -36z" glyph-name="n" horiz-adv-x="1090" unicode="n"/>
<glyph d="M555 1005q108 0 195 -36t148.5 -102.5t94 -161t32.5 -210.5q0 -117 -32.5 -211t-94 -160t-148.5 -102t-195 -36q-110 0 -197 36t-149 102t-94.5 160t-32.5 211q0 116 32.5 210.5t94.5 161t149 102.5t197 36zM555 122q146 0 218.5 98t72.5 274q0 177 -72.5 275.5 t-218.5 98.5q-75 0 -130 -25.5t-91.5 -73t-54.5 -117.5t-18 -158q0 -176 72.5 -274t221.5 -98z" glyph-name="o" horiz-adv-x="1107" unicode="o"/>
<glyph d="M312 238q48 -64 105 -90.5t127 -26.5q139 0 213 98.5t74 281.5q0 97 -17 166t-49.5 113.5t-79 65t-106.5 20.5q-85 0 -149 -39t-118 -110v-479zM304 836q62 77 144 124t188 47q86 0 155 -33t118 -97t75.5 -158.5t26.5 -217.5q0 -109 -29.5 -203.5t-84.5 -163.5 t-134.5 -108.5t-179.5 -39.5q-91 0 -156 31t-115 86v-438h-174v1324h104q37 0 46 -36z" glyph-name="p" horiz-adv-x="1095" unicode="p"/>
<glyph d="M782 755q-47 62 -104.5 89t-127.5 27q-138 0 -212 -98.5t-74 -281.5q0 -96 16.5 -165t48.5 -113.5t79 -65t107 -20.5q86 0 150 39t117 110v479zM956 989v-1324h-174v482q-61 -72 -141 -116.5t-183 -44.5q-85 0 -154.5 33t-118 96.5t-75 158t-26.5 217.5q0 110 29.5 204 t84 163.5t134 109t179.5 39.5q96 0 163.5 -34.5t119.5 -95.5l12 76q9 36 47 36h103z" glyph-name="q" horiz-adv-x="1094" unicode="q"/>
<glyph d="M303 791q47 102 115 159t167 57q31 0 60 -7t51 -21l-12 -130q-6 -25 -30 -25q-13 0 -39.5 6t-59.5 6q-47 0 -83.5 -13.5t-65.5 -40.5t-52 -66.5t-42 -90.5v-625h-174v989h99q29 0 39.5 -10.5t14.5 -37.5z" glyph-name="r" horiz-adv-x="711" unicode="r"/>
<glyph d="M714 826q-12 -21 -36 -21q-15 0 -33.5 10.5t-45.5 24t-64 24.5t-88 11q-44 0 -79 -11t-60 -31t-38 -45.5t-13 -56.5q0 -38 22 -63t58 -44t82 -33t94.5 -30t94 -35.5t82 -49t58.5 -72t22 -101.5q0 -69 -24.5 -127t-72.5 -100.5t-117.5 -67t-159.5 -24.5q-104 0 -188 34 t-143 86l41 67q8 13 19 19.5t27 6.5q18 0 37.5 -13.5t47.5 -30t68 -30.5t99 -14q51 0 89 13.5t63.5 36t37.5 51.5t12 62q0 41 -22 68t-58 46t-82.5 33.5t-94.5 30t-94.5 35.5t-82.5 50t-58 74.5t-22 108.5q0 56 23.5 108.5t68.5 92t110 63t149 23.5q98 0 175.5 -31 t134.5 -84z" glyph-name="s" horiz-adv-x="846" unicode="s"/>
<glyph d="M441 -16q-117 0 -180 65.5t-63 188.5v606h-119q-16 0 -26.5 9t-10.5 29v69l162 21l40 305q3 15 13.5 24.5t26.5 9.5h88v-341h286v-126h-286v-594q0 -63 30.5 -93t77.5 -30q28 0 48 7.5t34.5 16t25 16t17.5 7.5q14 0 25 -17l51 -83q-45 -42 -108.5 -66t-131.5 -24z" glyph-name="t" horiz-adv-x="700" unicode="t"/>
<glyph d="M951 989v-989h-103q-37 0 -47 36l-14 107q-64 -72 -144.5 -115.5t-183.5 -43.5q-81 0 -143 27t-104 76t-63 118t-21 153v631h174v-631q0 -112 51 -173.5t157 -61.5q77 0 144 36.5t123 101.5v728h174z" glyph-name="u" horiz-adv-x="1089" unicode="u"/>
<glyph d="M985 989l-403 -989h-156l-404 989h142q22 0 35.5 -10.5t18.5 -25.5l251 -637q11 -36 20 -70t17 -68q8 34 16.5 68t21.5 70l254 637q6 16 19.5 26t32.5 10h135z" glyph-name="v" horiz-adv-x="1008" unicode="v"/>
<glyph d="M1502 989l-320 -989h-138q-25 0 -35 33l-219 671q-8 23 -13 45.5t-9 45.5q-5 -23 -10 -45.5t-13 -46.5l-223 -670q-8 -33 -39 -33h-130l-321 989h137q20 0 34.5 -10.5t19.5 -25.5l189 -637q17 -70 26 -132q9 32 18.5 65t20.5 67l209 641q4 15 16.5 24.5t29.5 9.5h77 q19 0 32 -9.5t17 -24.5l204 -641q11 -34 20 -67t17 -65q5 32 12 64.5t16 67.5l193 637q5 16 19 26t32 10h131z" glyph-name="w" horiz-adv-x="1534" unicode="w"/>
<glyph d="M950 0h-167q-21 0 -33.5 11t-20.5 25l-249 388q-3 -14 -7.5 -27t-12.5 -24l-231 -337q-9 -14 -20.5 -25t-30.5 -11h-156l347 508l-333 481h167q22 0 31.5 -6.5t17.5 -19.5l243 -371q8 28 25 54l212 313q9 14 19.5 22t24.5 8h161l-333 -472z" glyph-name="x" horiz-adv-x="973" unicode="x"/>
<glyph d="M991 989l-552 -1281q-8 -20 -21.5 -31.5t-40.5 -11.5h-129l181 393l-408 931h150q22 0 35.5 -11t18.5 -25l264 -623q16 -41 27 -86q13 46 29 87l257 622q6 16 20 26t32 10h137z" glyph-name="y" horiz-adv-x="1007" unicode="y"/>
<glyph d="M820 915q0 -19 -6 -36.5t-17 -29.5l-536 -713h541v-136h-745v72q0 13 5.5 30t17.5 33l539 718h-532v136h733v-74z" glyph-name="z" horiz-adv-x="883" unicode="z"/>
<glyph d="M465 1383q-76 0 -119 -49.5t-43 -133.5q0 -54 6.5 -105t15.5 -99.5t16 -96t7 -96.5q0 -36 -11 -68t-31 -57.5t-47 -43.5t-59 -27q32 -8 59 -26t47 -43t31 -57t11 -68q0 -49 -7 -96.5t-16 -96t-15.5 -99.5t-6.5 -105q0 -85 43 -134t119 -49h19q12 0 25.5 -9t13.5 -28v-78 h-52q-79 0 -139.5 23t-101 64t-60.5 97.5t-20 123.5q0 51 8 99.5t17 97t16.5 96t7.5 96.5q0 62 -34 101.5t-99 39.5v104q65 0 99 39t34 102q0 49 -7.5 96.5t-16.5 95.5t-17 97t-8 99q0 68 20 124.5t60.5 97.5t101 63.5t139.5 22.5h52v-77q0 -20 -13.5 -28.5t-25.5 -8.5h-19z " glyph-name="braceleft" horiz-adv-x="588" unicode="{"/>
<glyph d="M177 1497h135v-1838h-135v1838z" glyph-name="bar" horiz-adv-x="489" unicode="|"/>
<glyph d="M521 556q-64 0 -98 -39.5t-34 -101.5q0 -49 7.5 -96.5t16.5 -96t16.5 -97t7.5 -99.5q0 -67 -20 -123.5t-60.5 -97.5t-100.5 -64t-139 -23h-53v78q0 19 14.5 28t25.5 9h19q76 0 119 49t43 134q0 54 -7 105t-15.5 99.5t-15.5 96t-7 96.5q0 36 11 68t31 57t46.5 43t59.5 26 q-33 9 -59.5 27t-46.5 43.5t-31 57.5t-11 68q0 49 7 96.5t15.5 96t15.5 99.5t7 105q0 84 -43 133.5t-119 49.5h-19q-11 0 -25.5 8.5t-14.5 28.5v77h53q79 0 139 -22.5t100.5 -63.5t60.5 -97.5t20 -124.5q0 -50 -7.5 -99t-16.5 -97t-16.5 -95.5t-7.5 -96.5q0 -63 34 -102 t98 -39v-104z" glyph-name="braceright" horiz-adv-x="588" unicode="}"/>
<glyph d="M745 599q64 0 99.5 41.5t36.5 109.5h140q0 -65 -18 -120t-51.5 -94t-83.5 -60.5t-112 -21.5q-51 0 -101 15.5t-96 34.5t-88 35.5t-77 16.5q-64 0 -99.5 -41t-36.5 -111h-141q0 66 18 120.5t52 93.5t83 61t113 22q51 0 100.5 -16t96 -35t88.5 -35t77 -16z" glyph-name="asciitilde" unicode="~"/>
<glyph d="M164 -335v528q0 44 2 85.5t5 84t7.5 87.5t9.5 96h118q6 -51 10 -96t7 -87.5t5 -84t2 -85.5v-528h-166zM122 883q0 26 9.5 48t26 38.5t38.5 26t48 9.5t47.5 -9.5t38.5 -26t26.5 -38.5t9.5 -48t-9.5 -48.5t-26.5 -39t-38.5 -26t-47.5 -9.5t-48 9.5t-38.5 26t-26 39 t-9.5 48.5z" glyph-name="exclamdown" horiz-adv-x="492" unicode="¡"/>
<glyph d="M610 869q-74 -6 -130.5 -33.5t-94.5 -76t-57 -115.5t-19 -150q0 -157 65.5 -251.5t184.5 -116.5zM1004 138q-59 -70 -149 -106.5t-196 -43.5l-12 -171q-1 -18 -14 -32t-34 -14h-65l16 218q-90 10 -166 48.5t-131.5 103t-86 153.5t-30.5 200q0 109 32 200t93.5 158.5 t152 107t206.5 43.5l12 174q2 19 14.5 33.5t33.5 14.5h65l-16 -228q81 -11 145 -42t116 -79l-45 -61q-8 -10 -15 -15.5t-21 -5.5q-12 0 -27.5 8.5t-37.5 20t-52.5 23t-71.5 18.5l-51 -744q61 4 102 19t70 32t47.5 30.5t34.5 13.5q11 0 19.5 -4.5t13.5 -11.5z" glyph-name="cent" unicode="¢"/>
<glyph d="M47 656q0 26 15.5 43.5t43.5 17.5h131v255q0 91 26.5 172t80 141t133.5 94.5t187 34.5q76 0 135.5 -19t105.5 -52t80 -77t57 -95l-70 -45q-26 -13 -48 -11t-41 25q-19 26 -39 48.5t-45.5 39.5t-58 27t-76.5 10q-61 0 -107.5 -20.5t-78 -59t-47 -92t-15.5 -119.5v-257h430 v-71q0 -17 -14.5 -31.5t-36.5 -14.5h-379v-238q0 -73 -28 -126t-76 -97q27 5 55.5 8t56.5 3h661v-74q0 -14 -5.5 -27t-15.5 -24t-24 -18t-31 -7h-942v112q34 10 64.5 26.5t54 41.5t37.5 58.5t14 78.5v283h-190v56z" glyph-name="sterling" unicode="£"/>
<glyph d="M347 656q0 -45 17 -84.5t47 -69t70 -47.5t85 -18q46 0 86.5 18t70.5 47.5t47.5 69t17.5 84.5q0 46 -17.5 86t-47.5 70.5t-70.5 47.5t-86.5 17q-45 0 -85 -17t-70 -47.5t-47 -70.5t-17 -86zM915 222l-148 148q-43 -29 -93.5 -45.5t-107.5 -16.5q-55 0 -104.5 16t-91.5 44 l-150 -149l-87 89l147 148q-29 43 -45.5 94t-16.5 106q0 56 16 106t44 92l-149 149l89 88l147 -149q43 31 94 47.5t107 16.5t106 -16t93 -45l148 149l87 -89l-147 -148q30 -43 46.5 -93.5t16.5 -107.5q0 -55 -16 -104.5t-45 -92.5l149 -147z" glyph-name="currency" unicode="¤"/>
<glyph d="M686 610h300v-99h-333v-103h333v-100h-333v-308h-174v308h-333v100h333v103h-333v99h301l-399 789h144q26 0 42 -12t24 -32l270 -552q14 -33 23.5 -61.5t16.5 -56.5q12 53 37 118l270 552q8 17 24 30.5t40 13.5h146z" glyph-name="yen" unicode="¥"/>
<glyph d="M180 1497h135v-775h-135v775zM180 441h135v-776h-135v776z" glyph-name="brokenbar" horiz-adv-x="495" unicode="¦"/>
<glyph d="M253 709q0 -50 34 -84.5t87.5 -62.5t118 -54t124.5 -56q54 26 77 62.5t23 82.5q0 35 -15 62.5t-40 49.5t-59.5 41t-73 36t-79.5 34t-80 36q-63 -29 -90 -64.5t-27 -82.5zM786 1235q-14 -21 -36 -21q-15 0 -34 10.5t-45.5 24t-64 24.5t-87.5 11q-47 0 -84.5 -12 t-63.5 -32.5t-40 -48t-14 -57.5q0 -37 24 -65t62.5 -51t88.5 -44t101.5 -43.5t101 -49.5t88 -61.5t62.5 -79.5t24 -104q0 -79 -38 -141t-120 -99q49 -37 78.5 -84.5t29.5 -115.5t-24 -126t-71.5 -100.5t-117.5 -67t-160 -24.5q-103 0 -187 33.5t-143 86.5l41 66q8 13 19 20 t27 7q18 0 37.5 -14t48 -31t69.5 -30.5t103 -13.5q50 0 88.5 12t65 34t40 52.5t13.5 67.5q0 44 -24.5 76t-64.5 57t-91 45.5t-104.5 42t-104.5 46.5t-91.5 59t-64.5 79.5t-24 108.5q0 77 42 137.5t132 95.5q-48 37 -79 88t-31 124q0 57 23.5 109t68.5 91t111 62.5t150 23.5 q96 0 174 -30t134 -84z" glyph-name="section" horiz-adv-x="967" unicode="§"/>
<glyph d="M314 1259q0 -23 -8.5 -42.5t-24 -34t-35.5 -23.5t-43 -9q-21 0 -40.5 9t-35 23.5t-24 34t-8.5 42.5q0 22 8.5 42.5t24 36t35 24t40.5 8.5q23 0 43 -8.5t35.5 -24t24 -36t8.5 -42.5zM687 1259q0 -23 -9 -42.5t-24 -34t-35 -23.5t-43 -9q-22 0 -42 9t-35 23.5t-23.5 34 t-8.5 42.5q0 22 8.5 42.5t23.5 36t35 24t42 8.5q23 0 43 -8.5t35 -24t24 -36t9 -42.5z" glyph-name="dieresis" horiz-adv-x="781" unicode="¨"/>
<glyph d="M1062 463q14 1 26 -11l58 -62q-55 -65 -135.5 -100.5t-194.5 -35.5q-95 0 -174 33t-135 92.5t-86.5 142t-30.5 179.5q0 99 33 181.5t92.5 141.5t141 91.5t177.5 32.5q106 0 180 -32.5t130 -87.5l-45 -63q-5 -6 -13 -12t-19 -6q-13 0 -28.5 11t-39.5 24t-62 24.5t-94 11.5 q-70 0 -124.5 -22t-93.5 -63t-59.5 -100t-20.5 -132q0 -75 21 -134t58 -99t88.5 -61t111.5 -21q51 0 85 7.5t60 19t47 25t46 25.5zM99 699q0 99 25 190t72 171t112 145t144 111.5t170 72t190 25.5q98 0 189.5 -25.5t170.5 -72t144.5 -111.5t112 -145t71.5 -171t25 -190 q0 -97 -25 -188.5t-71.5 -170.5t-112 -144t-144.5 -112t-170.5 -72.5t-189.5 -25.5q-99 0 -190 25.5t-170 72.5t-144 112t-112 144t-72 170t-25 189zM197 699q0 -87 21.5 -167t61 -150t96 -126.5t124 -97t147 -62.5t165.5 -22q85 0 165 22t148.5 62.5t125 97t96.5 126.5 t62 150t22 167q0 131 -48.5 246t-132 200t-197 134.5t-241.5 49.5q-86 0 -165.5 -22.5t-147 -63t-124 -98t-96 -127.5t-61 -151t-21.5 -168z" glyph-name="copyright" horiz-adv-x="1624" unicode="©"/>
<glyph d="M466 1076q-69 -3 -115.5 -11t-76 -21.5t-42.5 -30.5t-13 -37q0 -41 26 -58t65 -17q49 0 85.5 18.5t70.5 53.5v103zM129 1323q50 48 109.5 70.5t130.5 22.5q53 0 94 -16.5t69.5 -46t43 -70.5t14.5 -91v-372h-59q-17 0 -26 5.5t-17 23.5l-11 47q-24 -20 -47 -35.5t-47 -27 t-51.5 -16.5t-60.5 -5q-38 0 -69 9.5t-54.5 29.5t-36.5 49.5t-13 69.5q0 33 18.5 65.5t62 59t113.5 43t174 18.5v36q0 62 -28 91t-84 29q-37 0 -61.5 -8.5t-43 -19t-32.5 -18.5t-30 -8q-13 0 -22 7.5t-15 16.5z" glyph-name="ordfeminine" horiz-adv-x="718" unicode="ª"/>
<glyph d="M415 227q14 -23 9.5 -43t-27.5 -31l-56 -27l-243 380v22l243 380l56 -27q23 -11 27.5 -31t-9.5 -42l-154 -255q-14 -25 -28 -35q14 -13 28 -37zM704 227q14 -23 9.5 -43t-27.5 -31l-56 -27l-243 380v22l243 380l56 -27q23 -11 27.5 -31t-9.5 -42l-154 -255 q-14 -25 -28 -35q14 -13 28 -37z" glyph-name="guillemotleft" horiz-adv-x="838" unicode="«"/>
<glyph d="M984 308h-147v282h-692v132h839v-414z" glyph-name="logicalnot" unicode="¬"/>
<glyph d="M784 723q109 0 152.5 39.5t43.5 113.5q0 36 -9 63.5t-30 45t-55.5 26.5t-85.5 9h-128v-297h112zM800 1137q169 0 249.5 -61t80.5 -180q0 -92 -52 -156.5t-155 -88.5q16 -10 28.5 -25t23.5 -34l222 -326h-145q-32 0 -47 24l-197 295q-9 13 -21.5 19.5t-37.5 6.5h-77v-345 h-152v871h280zM812 74q85 0 165 22t148.5 62.5t125 97t96.5 126.5t62 150t22 167q0 131 -48.5 246t-132 200t-197 134.5t-241.5 49.5q-86 0 -165.5 -22.5t-147 -63t-124 -98t-96 -127.5t-61 -151t-21.5 -168t21.5 -167t61 -150t96 -126.5t124 -97t147 -62.5t165.5 -22z M812 1414q98 0 189.5 -25.5t170.5 -72t144.5 -111.5t112 -145t71.5 -171t25 -190q0 -97 -25 -188.5t-71.5 -170.5t-112 -144t-144.5 -112t-170.5 -72.5t-189.5 -25.5q-99 0 -190 25.5t-170 72.5t-144 112t-112 144t-72 170t-25 189q0 99 25 190t72 171t112 145t144 111.5 t170 72t190 25.5z" glyph-name="registered" horiz-adv-x="1624" unicode="®"/>
<glyph d="M87 1102q0 65 24.5 122.5t67.5 100t100.5 67t124.5 24.5q68 0 126 -24.5t101 -67t68 -100t25 -122.5t-25 -122t-68 -99.5t-101 -67.5t-126 -25q-67 0 -124.5 25t-100.5 67.5t-67.5 99.5t-24.5 122zM210 1101q0 -41 14.5 -77t41 -62t62 -41.5t76.5 -15.5t77 15.5t62 41.5 t41 62t15 77t-15 77t-41 63t-62 42t-77 15t-76.5 -15t-62 -42t-41 -63t-14.5 -77z" glyph-name="degree" horiz-adv-x="810" unicode="°"/>
<glyph d="M99 210h935v-132h-935v132zM1034 807v-133h-397v-360h-143v360h-395v133h395v367h143v-367h397z" glyph-name="plusminus" unicode="±"/>
<glyph d="M529 995q20 0 31 -10.5t11 -30.5v-75h-499v42q0 13 5.5 26.5t17.5 25.5l216 214q48 48 82 100t34 105q0 49 -29.5 76t-72.5 27q-46 0 -73 -23.5t-41 -64.5q-10 -17 -22.5 -24t-38.5 -3l-69 12q15 103 82.5 155t167.5 52q51 0 92.5 -15t70.5 -41t45.5 -64t16.5 -83 q0 -39 -12.5 -73t-33 -64t-46.5 -58.5t-56 -57.5l-159 -161q24 5 46.5 9t43.5 4h190z" glyph-name="twosuperior" horiz-adv-x="652" unicode="²"/>
<glyph d="M90 1392q7 51 28.5 90t53 64.5t72.5 39t89 13.5q50 0 90 -14.5t69 -39t44.5 -58t15.5 -72.5q0 -125 -115 -169q130 -36 130 -155q0 -54 -20.5 -95t-54 -68.5t-78 -42t-91.5 -14.5q-55 0 -96 12.5t-71 36t-51 59t-36 81.5l54 23q22 9 41 4.5t26 -21.5q5 -9 13 -24.5 t22 -30t36 -24.5t55 -10q31 0 54 9.5t38.5 24.5t23 35t7.5 40q0 29 -8 50t-27 35t-51 20.5t-78 6.5v85q85 1 120 30.5t35 80.5q0 48 -28.5 73.5t-75.5 25.5t-74.5 -23t-39.5 -62q-10 -19 -20.5 -25.5t-36.5 -2.5z" glyph-name="threesuperior" horiz-adv-x="652" unicode="³"/>
<glyph d="M675 1415l-228 -252q-13 -15 -26.5 -21t-33.5 -6h-104l145 236q13 23 29.5 33t47.5 10h170z" glyph-name="acute" horiz-adv-x="781" unicode="´"/>
<glyph d="M1200 121v-70q0 -23 -30.5 -42t-87.5 -19q-41 0 -78.5 12t-68.5 36.5t-53.5 62.5t-31.5 89q-59 -87 -133.5 -135.5t-168.5 -48.5q-73 0 -127.5 23t-91.5 67q6 -40 8.5 -81.5t2.5 -77.5v-272h-87q-37 0 -57 19.5t-20 54.5v1250h175v-598q0 -112 51 -177t156 -65 q89 0 156 48.5t112 136.5v655h174v-721q0 -77 39 -112t104 -35h57z" glyph-name="mu" horiz-adv-x="1269" unicode="µ"/>
<glyph d="M1299 1250h-214v-1446h-153v1446h-271v-1446h-153v841q-102 0 -183 29.5t-138 81t-88 120.5t-31 148q0 84 31 153t88 118.5t138 76.5t183 27h791v-149z" glyph-name="paragraph" horiz-adv-x="1368" unicode="¶"/>
<glyph d="M420 -73q91 -19 131 -53t40 -87q0 -31 -15.5 -56.5t-43.5 -43t-67 -27t-86 -9.5q-40 0 -76 8.5t-67 22.5l17 53q6 18 22 18q6 0 14 -3.5t19 -8t26.5 -8t35.5 -3.5q41 0 62 17t21 42q0 37 -41 52t-116 25l53 158h98z" glyph-name="cedilla" horiz-adv-x="781" unicode="¸"/>
<glyph d="M552 962v-83h-398v83h144v430l5 43l-106 -87q-8 -7 -16.5 -8.5t-16.5 0t-14 5.5t-9 8l-38 54l216 186h106v-631h127z" glyph-name="onesuperior" horiz-adv-x="652" unicode="¹"/>
<glyph d="M395 1415q68 0 123 -21t94 -60t60.5 -95t21.5 -126t-21.5 -126.5t-60.5 -96t-94 -60.5t-123 -21q-70 0 -125.5 21t-95 60.5t-61 96t-21.5 126.5t21.5 126t61 95t95 60t125.5 21zM395 912q82 0 122.5 51.5t40.5 148.5q0 98 -40.5 149t-122.5 51q-86 0 -126 -51t-40 -149 q0 -97 40 -148.5t126 -51.5z" glyph-name="ordmasculine" horiz-adv-x="785" unicode="º"/>
<glyph d="M452 528v-22l-243 -380l-57 27q-22 11 -26.5 31t9.5 43l154 254q8 12 14.5 21.5t13.5 15.5q-7 4 -13.5 13.5t-14.5 21.5l-154 255q-14 22 -9.5 42t26.5 31l57 27zM741 528v-22l-243 -380l-57 27q-22 11 -26.5 31t9.5 43l154 254q8 12 14.5 21.5t13.5 15.5 q-7 4 -13.5 13.5t-14.5 21.5l-154 255q-14 22 -9.5 42t26.5 31l57 27z" glyph-name="guillemotright" horiz-adv-x="839" unicode="»"/>
<glyph d="M408 52q-18 -31 -39.5 -41.5t-49.5 -10.5h-75l799 1340q18 28 40.5 43.5t53.5 15.5h75zM536 770v-83h-398v83h144v430l5 43l-106 -87q-8 -7 -16.5 -8.5t-16.5 0t-14 5.5t-9 8l-38 54l216 186h106v-631h127zM1145 261v235q0 39 6 86l-237 -321h231zM1357 261v-64 q0 -10 -7 -17.5t-19 -7.5h-81v-172h-105v172h-299q-19 0 -28.5 7.5t-12.5 19.5l-10 56l335 457h120v-451h107z" glyph-name="onequarter" horiz-adv-x="1434" unicode="¼"/>
<glyph d="M368 52q-18 -31 -39.5 -41.5t-49.5 -10.5h-75l799 1340q18 28 40.5 43.5t53.5 15.5h75zM538 770v-83h-398v83h144v430l5 43l-106 -87q-8 -7 -16.5 -8.5t-16.5 0t-14 5.5t-9 8l-38 54l216 186h106v-631h127zM1286 116q20 0 31 -10.5t11 -30.5v-75h-499v42q0 13 5.5 26.5 t17.5 25.5l216 214q48 48 82 100t34 105q0 49 -29.5 76t-72.5 27q-46 0 -73 -23.5t-41 -64.5q-10 -17 -22.5 -24t-38.5 -3l-69 12q15 103 82.5 155t167.5 52q51 0 92.5 -15t70.5 -41t45.5 -64t16.5 -83q0 -39 -12.5 -73t-33 -64t-46.5 -58.5t-56 -57.5l-159 -161 q24 5 46.5 9t43.5 4h190z" glyph-name="onehalf" horiz-adv-x="1417" unicode="½"/>
<glyph d="M430 52q-18 -31 -39.5 -41.5t-49.5 -10.5h-75l799 1340q18 28 40.5 43.5t53.5 15.5h75zM107 1200q7 51 28.5 90t53 64.5t72.5 39t89 13.5q50 0 90 -14.5t69 -39t44.5 -58t15.5 -72.5q0 -125 -115 -169q130 -36 130 -155q0 -54 -20.5 -95t-54 -68.5t-78 -42t-91.5 -14.5 q-55 0 -96 12.5t-71 36t-51 59t-36 81.5l54 23q22 9 41 4.5t26 -21.5q5 -9 13 -24.5t22 -30t36 -24.5t55 -10q31 0 54 9.5t38.5 24.5t23 35t7.5 40q0 29 -8 50t-27 35t-51 20.5t-78 6.5v85q85 1 120 30.5t35 80.5q0 48 -28.5 73.5t-75.5 25.5t-74.5 -23t-39.5 -62 q-10 -19 -20.5 -25.5t-36.5 -2.5zM1161 261v235q0 39 6 86l-237 -321h231zM1373 261v-64q0 -10 -7 -17.5t-19 -7.5h-81v-172h-105v172h-299q-19 0 -28.5 7.5t-12.5 19.5l-10 56l335 457h120v-451h107z" glyph-name="threequarters" horiz-adv-x="1449" unicode="¾"/>
<glyph d="M789 -207q-30 -28 -66.5 -53.5t-79.5 -45t-94 -31t-110 -11.5q-77 0 -142.5 21.5t-113 61.5t-75 98t-27.5 131q0 74 22 126t55.5 89t73 63.5t75 49.5t60.5 47t29 57l17 150h118l12 -163q4 -46 -16.5 -78t-54 -57t-73.5 -48.5t-74.5 -53t-58 -69.5t-23.5 -98 q0 -43 16.5 -77t45.5 -58t67 -36.5t82 -12.5q60 0 102.5 14.5t72 32t47.5 32.5t30 15q25 0 37 -23zM354 882q0 25 9 47.5t25 39t38.5 26.5t48.5 10q25 0 47.5 -10t39 -26.5t26.5 -39t10 -47.5q0 -27 -10 -48.5t-26.5 -38.5t-39 -26t-47.5 -9q-26 0 -48.5 9t-38.5 26 t-25 38.5t-9 48.5z" glyph-name="questiondown" horiz-adv-x="859" unicode="¿"/>
<glyph d="M922 520l-220 569q-10 25 -20.5 59t-20.5 72q-20 -79 -42 -132l-220 -568h523zM1316 0h-146q-25 0 -41 12.5t-24 32.5l-130 338h-628l-131 -338q-6 -18 -22.5 -31.5t-41.5 -13.5h-146l559 1399h192zM489 1809q32 0 48.5 -5t33.5 -27l222 -267h-125q-21 0 -33.5 2.5 t-26.5 15.5l-305 281h186z" glyph-name="Agrave" horiz-adv-x="1322" unicode="À"/>
<glyph d="M922 520l-220 569q-10 25 -20.5 59t-20.5 72q-20 -79 -42 -132l-220 -568h523zM1316 0h-146q-25 0 -41 12.5t-24 32.5l-130 338h-628l-131 -338q-6 -18 -22.5 -31.5t-41.5 -13.5h-146l559 1399h192zM1031 1809l-319 -280q-15 -13 -28.5 -16t-32.5 -3h-125l225 267 q17 22 34 27t49 5h197z" glyph-name="Aacute" horiz-adv-x="1322" unicode="Á"/>
<glyph d="M922 520l-220 569q-10 25 -20.5 59t-20.5 72q-20 -79 -42 -132l-220 -568h523zM1316 0h-146q-25 0 -41 12.5t-24 32.5l-130 338h-628l-131 -338q-6 -18 -22.5 -31.5t-41.5 -13.5h-146l559 1399h192zM974 1510h-127q-12 0 -28 4.5t-32 23.5l-115 138l-11 17l-12 -17 l-114 -138q-17 -19 -33 -23.5t-28 -4.5h-122l233 264h157z" glyph-name="Acircumflex" horiz-adv-x="1322" unicode="Â"/>
<glyph d="M922 520l-220 569q-10 25 -20.5 59t-20.5 72q-20 -79 -42 -132l-220 -568h523zM1316 0h-146q-25 0 -41 12.5t-24 32.5l-130 338h-628l-131 -338q-6 -18 -22.5 -31.5t-41.5 -13.5h-146l559 1399h192zM784 1624q22 0 39 8.5t29 22.5t17.5 31.5t5.5 35.5h107 q0 -42 -12 -80.5t-34.5 -68.5t-56 -47.5t-76.5 -17.5q-44 0 -78.5 16t-64.5 35t-56 35t-54 16q-22 0 -38.5 -8.5t-28 -23t-17.5 -32t-6 -34.5h-108q0 42 12 81t34.5 68.5t56 47.5t76.5 18q44 0 79 -16.5t64.5 -35.5t55.5 -35t54 -16z" glyph-name="Atilde" horiz-adv-x="1322" unicode="Ã"/>
<glyph d="M922 520l-220 569q-10 25 -20.5 59t-20.5 72q-20 -79 -42 -132l-220 -568h523zM1316 0h-146q-25 0 -41 12.5t-24 32.5l-130 338h-628l-131 -338q-6 -18 -22.5 -31.5t-41.5 -13.5h-146l559 1399h192zM564 1627q0 -22 -9 -41t-24 -33.5t-35 -23t-41 -8.5t-40 8.5t-33.5 23 t-23.5 33.5t-9 41t9 42t23.5 35t33.5 23.5t40 8.5t41 -8.5t35 -23.5t24 -35t9 -42zM972 1627q0 -22 -8.5 -41t-23.5 -33.5t-34.5 -23t-40.5 -8.5q-23 0 -42.5 8.5t-34 23t-23 33.5t-8.5 41t8.5 42t23 35t34 23.5t42.5 8.5q21 0 40.5 -8.5t34.5 -23.5t23.5 -35t8.5 -42z" glyph-name="Adieresis" horiz-adv-x="1322" unicode="Ä"/>
<glyph d="M922 520l-220 569q-10 25 -20.5 59t-20.5 72q-20 -79 -42 -132l-220 -568h523zM1316 0h-146q-25 0 -41 12.5t-24 32.5l-130 338h-628l-131 -338q-6 -18 -22.5 -31.5t-41.5 -13.5h-146l559 1399h192zM476 1657q0 38 15 70.5t40 55t58.5 35t70.5 12.5q38 0 72 -12.5 t59.5 -35t40.5 -55t15 -70.5t-15 -69t-40.5 -53.5t-59.5 -35.5t-72 -13q-37 0 -70.5 13t-58.5 35.5t-40 53.5t-15 69zM563 1657q0 -43 26.5 -70t73.5 -27q44 0 70.5 27t26.5 70q0 44 -26.5 71.5t-70.5 27.5q-47 0 -73.5 -27.5t-26.5 -71.5z" glyph-name="Aring" horiz-adv-x="1322" unicode="Å"/>
<glyph d="M912 520l-93 738q-12 -41 -26 -75.5t-27 -65.5l-310 -597h456zM1731 154l-1 -154h-753l-48 383h-543l-176 -339q-10 -20 -28.5 -32t-43.5 -12h-144l738 1399h998v-154h-730l58 -465h545v-148h-527l59 -478h596z" glyph-name="AE" horiz-adv-x="1817" unicode="Æ"/>
<glyph d="M1264 195q-80 -92 -191 -147t-265 -63l-17 -58q91 -19 131 -53t40 -87q0 -31 -15.5 -56.5t-43.5 -43t-67 -27t-86 -9.5q-40 0 -76 8.5t-67 22.5l17 53q6 18 22 18q6 0 14 -3.5t19 -8t26.5 -8t35.5 -3.5q41 0 62 17t21 42q0 37 -41 52t-116 25l40 120q-140 9 -253 64.5 t-193.5 149.5t-124 221t-43.5 278q0 158 49.5 290t140 227t216.5 147t278 52q150 0 264 -48t201 -130l-62 -87q-6 -9 -15.5 -15.5t-24.5 -6.5q-18 0 -43.5 19t-66.5 42.5t-102.5 42.5t-151.5 19q-108 0 -198 -37.5t-155 -109t-101 -174t-36 -231.5q0 -131 37.5 -233.5 t102.5 -173t153.5 -108t191.5 -37.5q62 0 112.5 7.5t93 23t79 39.5t72.5 57q17 15 33 15t27 -13z" glyph-name="Ccedilla" horiz-adv-x="1305" unicode="Ç"/>
<glyph d="M1042 154l-1 -154h-862v1399h862v-154h-673v-465h545v-148h-545v-478h674zM450 1809q32 0 48.5 -5t33.5 -27l222 -267h-125q-21 0 -33.5 2.5t-26.5 15.5l-305 281h186z" glyph-name="Egrave" horiz-adv-x="1128" unicode="È"/>
<glyph d="M1042 154l-1 -154h-862v1399h862v-154h-673v-465h545v-148h-545v-478h674zM992 1809l-319 -280q-15 -13 -28.5 -16t-32.5 -3h-125l225 267q17 22 34 27t49 5h197z" glyph-name="Eacute" horiz-adv-x="1128" unicode="É"/>
<glyph d="M1042 154l-1 -154h-862v1399h862v-154h-673v-465h545v-148h-545v-478h674zM935 1510h-127q-12 0 -28 4.5t-32 23.5l-115 138l-11 17l-12 -17l-114 -138q-17 -19 -33 -23.5t-28 -4.5h-122l233 264h157z" glyph-name="Ecircumflex" horiz-adv-x="1128" unicode="Ê"/>
<glyph d="M1042 154l-1 -154h-862v1399h862v-154h-673v-465h545v-148h-545v-478h674zM525 1627q0 -22 -9 -41t-24 -33.5t-35 -23t-41 -8.5t-40 8.5t-33.5 23t-23.5 33.5t-9 41t9 42t23.5 35t33.5 23.5t40 8.5t41 -8.5t35 -23.5t24 -35t9 -42zM933 1627q0 -22 -8.5 -41t-23.5 -33.5 t-34.5 -23t-40.5 -8.5q-23 0 -42.5 8.5t-34 23t-23 33.5t-8.5 41t8.5 42t23 35t34 23.5t42.5 8.5q21 0 40.5 -8.5t34.5 -23.5t23.5 -35t8.5 -42z" glyph-name="Edieresis" horiz-adv-x="1128" unicode="Ë"/>
<glyph d="M368 0h-189v1399h189v-1399zM105 1809q32 0 48.5 -5t33.5 -27l222 -267h-125q-21 0 -33.5 2.5t-26.5 15.5l-305 281h186z" glyph-name="Igrave" horiz-adv-x="547" unicode="Ì"/>
<glyph d="M368 0h-189v1399h189v-1399zM647 1809l-319 -280q-15 -13 -28.5 -16t-32.5 -3h-125l225 267q17 22 34 27t49 5h197z" glyph-name="Iacute" horiz-adv-x="547" unicode="Í"/>
<glyph d="M368 0h-189v1399h189v-1399zM591 1510h-127q-12 0 -28 4.5t-32 23.5l-115 138l-11 17l-12 -17l-114 -138q-17 -19 -33 -23.5t-28 -4.5h-122l233 264h157z" glyph-name="Icircumflex" horiz-adv-x="547" unicode="Î"/>
<glyph d="M368 0h-189v1399h189v-1399zM181 1627q0 -22 -9 -41t-24 -33.5t-35 -23t-41 -8.5t-40 8.5t-33.5 23t-23.5 33.5t-9 41t9 42t23.5 35t33.5 23.5t40 8.5t41 -8.5t35 -23.5t24 -35t9 -42zM589 1627q0 -22 -8.5 -41t-23.5 -33.5t-34.5 -23t-40.5 -8.5q-23 0 -42.5 8.5t-34 23 t-23 33.5t-8.5 41t8.5 42t23 35t34 23.5t42.5 8.5q21 0 40.5 -8.5t34.5 -23.5t23.5 -35t8.5 -42z" glyph-name="Idieresis" horiz-adv-x="547" unicode="Ï"/>
<glyph d="M718 153q112 0 204 37.5t156.5 107t99.5 171t35 230.5t-35 230.5t-99.5 172t-156.5 107.5t-204 37h-333v-484h283v-112h-283v-497h333zM718 1399q154 0 281 -50t218 -142.5t140.5 -221.5t49.5 -286t-49.5 -286t-140.5 -220.5t-218 -142t-281 -50.5h-524v650h-191v112h191 v637h524z" glyph-name="Eth" horiz-adv-x="1501" unicode="Ð"/>
<glyph d="M1312 1399v-1399h-94q-23 0 -38 8t-30 26l-809 1055q2 -25 3 -48t1 -44v-997h-166v1399h97q13 0 22 -1.5t15.5 -4.5t13.5 -9.5t15 -16.5l809 -1054q-2 26 -3.5 50t-1.5 45v991h166zM883 1624q22 0 39 8.5t29 22.5t17.5 31.5t5.5 35.5h107q0 -42 -12 -80.5t-34.5 -68.5 t-56 -47.5t-76.5 -17.5q-44 0 -78.5 16t-64.5 35t-56 35t-54 16q-22 0 -38.5 -8.5t-28 -23t-17.5 -32t-6 -34.5h-108q0 42 12 81t34.5 68.5t56 47.5t76.5 18q44 0 79 -16.5t64.5 -35.5t55.5 -35t54 -16z" glyph-name="Ntilde" horiz-adv-x="1491" unicode="Ñ"/>
<glyph d="M1472 699q0 -157 -50 -288.5t-141 -226t-218 -147t-282 -52.5q-154 0 -281 52.5t-218 147t-140.5 226t-49.5 288.5t49.5 288.5t140.5 227t218 148t281 52.5q155 0 282 -52.5t218 -148t141 -227t50 -288.5zM1277 699q0 129 -35 231.5t-99.5 173.5t-156 109t-205.5 38 q-112 0 -204 -38t-157 -109t-100 -173.5t-35 -231.5t35 -231t100 -172.5t157 -108.5t204 -38q114 0 205.5 38t156 108.5t99.5 172.5t35 231zM611 1809q32 0 48.5 -5t33.5 -27l222 -267h-125q-21 0 -33.5 2.5t-26.5 15.5l-305 281h186z" glyph-name="Ograve" horiz-adv-x="1563" unicode="Ò"/>
<glyph d="M1472 699q0 -157 -50 -288.5t-141 -226t-218 -147t-282 -52.5q-154 0 -281 52.5t-218 147t-140.5 226t-49.5 288.5t49.5 288.5t140.5 227t218 148t281 52.5q155 0 282 -52.5t218 -148t141 -227t50 -288.5zM1277 699q0 129 -35 231.5t-99.5 173.5t-156 109t-205.5 38 q-112 0 -204 -38t-157 -109t-100 -173.5t-35 -231.5t35 -231t100 -172.5t157 -108.5t204 -38q114 0 205.5 38t156 108.5t99.5 172.5t35 231zM1153 1809l-319 -280q-15 -13 -28.5 -16t-32.5 -3h-125l225 267q17 22 34 27t49 5h197z" glyph-name="Oacute" horiz-adv-x="1563" unicode="Ó"/>
<glyph d="M1472 699q0 -157 -50 -288.5t-141 -226t-218 -147t-282 -52.5q-154 0 -281 52.5t-218 147t-140.5 226t-49.5 288.5t49.5 288.5t140.5 227t218 148t281 52.5q155 0 282 -52.5t218 -148t141 -227t50 -288.5zM1277 699q0 129 -35 231.5t-99.5 173.5t-156 109t-205.5 38 q-112 0 -204 -38t-157 -109t-100 -173.5t-35 -231.5t35 -231t100 -172.5t157 -108.5t204 -38q114 0 205.5 38t156 108.5t99.5 172.5t35 231zM1097 1510h-127q-12 0 -28 4.5t-32 23.5l-115 138l-11 17l-12 -17l-114 -138q-17 -19 -33 -23.5t-28 -4.5h-122l233 264h157z" glyph-name="Ocircumflex" horiz-adv-x="1563" unicode="Ô"/>
<glyph d="M1472 699q0 -157 -50 -288.5t-141 -226t-218 -147t-282 -52.5q-154 0 -281 52.5t-218 147t-140.5 226t-49.5 288.5t49.5 288.5t140.5 227t218 148t281 52.5q155 0 282 -52.5t218 -148t141 -227t50 -288.5zM1277 699q0 129 -35 231.5t-99.5 173.5t-156 109t-205.5 38 q-112 0 -204 -38t-157 -109t-100 -173.5t-35 -231.5t35 -231t100 -172.5t157 -108.5t204 -38q114 0 205.5 38t156 108.5t99.5 172.5t35 231zM907 1624q22 0 39 8.5t29 22.5t17.5 31.5t5.5 35.5h107q0 -42 -12 -80.5t-34.5 -68.5t-56 -47.5t-76.5 -17.5q-44 0 -78.5 16 t-64.5 35t-56 35t-54 16q-22 0 -38.5 -8.5t-28 -23t-17.5 -32t-6 -34.5h-108q0 42 12 81t34.5 68.5t56 47.5t76.5 18q44 0 79 -16.5t64.5 -35.5t55.5 -35t54 -16z" glyph-name="Otilde" horiz-adv-x="1563" unicode="Õ"/>
<glyph d="M1472 699q0 -157 -50 -288.5t-141 -226t-218 -147t-282 -52.5q-154 0 -281 52.5t-218 147t-140.5 226t-49.5 288.5t49.5 288.5t140.5 227t218 148t281 52.5q155 0 282 -52.5t218 -148t141 -227t50 -288.5zM1277 699q0 129 -35 231.5t-99.5 173.5t-156 109t-205.5 38 q-112 0 -204 -38t-157 -109t-100 -173.5t-35 -231.5t35 -231t100 -172.5t157 -108.5t204 -38q114 0 205.5 38t156 108.5t99.5 172.5t35 231zM687 1627q0 -22 -9 -41t-24 -33.5t-35 -23t-41 -8.5t-40 8.5t-33.5 23t-23.5 33.5t-9 41t9 42t23.5 35t33.5 23.5t40 8.5t41 -8.5 t35 -23.5t24 -35t9 -42zM1095 1627q0 -22 -8.5 -41t-23.5 -33.5t-34.5 -23t-40.5 -8.5q-23 0 -42.5 8.5t-34 23t-23 33.5t-8.5 41t8.5 42t23 35t34 23.5t42.5 8.5q21 0 40.5 -8.5t34.5 -23.5t23.5 -35t8.5 -42z" glyph-name="Odieresis" horiz-adv-x="1563" unicode="Ö"/>
<glyph d="M914 216l-346 346l-348 -348l-93 94l348 347l-337 337l92 94l337 -337l335 335l94 -94l-335 -335l346 -345z" glyph-name="multiply" unicode="×"/>
<glyph d="M516 218q113 -69 265 -69q114 0 205.5 38t156 108.5t99.5 172.5t35 231q0 123 -31.5 221.5t-90.5 168.5zM1069 1168q-58 41 -130.5 62t-157.5 21q-112 0 -204 -38t-157 -109t-100 -173.5t-35 -231.5q0 -132 36.5 -235t104.5 -174zM1262 1233q100 -95 155 -231t55 -303 q0 -157 -50 -288.5t-141 -226t-218 -147t-282 -52.5q-104 0 -196 24.5t-170 70.5l-98 -133q-20 -29 -49 -41t-57 -12h-76l186 253q-109 96 -169 236.5t-60 315.5q0 157 49.5 288.5t140.5 227t218 148t281 52.5q113 0 211 -28.5t179 -80.5l79 108q20 26 35.5 37.5t46.5 11.5 h98z" glyph-name="Oslash" horiz-adv-x="1563" unicode="Ø"/>
<glyph d="M719 150q87 0 155 29.5t115.5 82t72.5 126t25 161.5v850h188v-850q0 -121 -38.5 -224.5t-110 -179.5t-175 -119t-232.5 -43t-232.5 43t-176 119t-111 179.5t-38.5 224.5v850h189v-849q0 -88 24.5 -161.5t72 -126t116.5 -82.5t156 -30zM546 1809q32 0 48.5 -5t33.5 -27 l222 -267h-125q-21 0 -33.5 2.5t-26.5 15.5l-305 281h186z" glyph-name="Ugrave" horiz-adv-x="1437" unicode="Ù"/>
<glyph d="M719 150q87 0 155 29.5t115.5 82t72.5 126t25 161.5v850h188v-850q0 -121 -38.5 -224.5t-110 -179.5t-175 -119t-232.5 -43t-232.5 43t-176 119t-111 179.5t-38.5 224.5v850h189v-849q0 -88 24.5 -161.5t72 -126t116.5 -82.5t156 -30zM1088 1809l-319 -280 q-15 -13 -28.5 -16t-32.5 -3h-125l225 267q17 22 34 27t49 5h197z" glyph-name="Uacute" horiz-adv-x="1437" unicode="Ú"/>
<glyph d="M719 150q87 0 155 29.5t115.5 82t72.5 126t25 161.5v850h188v-850q0 -121 -38.5 -224.5t-110 -179.5t-175 -119t-232.5 -43t-232.5 43t-176 119t-111 179.5t-38.5 224.5v850h189v-849q0 -88 24.5 -161.5t72 -126t116.5 -82.5t156 -30zM1032 1510h-127q-12 0 -28 4.5 t-32 23.5l-115 138l-11 17l-12 -17l-114 -138q-17 -19 -33 -23.5t-28 -4.5h-122l233 264h157z" glyph-name="Ucircumflex" horiz-adv-x="1437" unicode="Û"/>
<glyph d="M719 150q87 0 155 29.5t115.5 82t72.5 126t25 161.5v850h188v-850q0 -121 -38.5 -224.5t-110 -179.5t-175 -119t-232.5 -43t-232.5 43t-176 119t-111 179.5t-38.5 224.5v850h189v-849q0 -88 24.5 -161.5t72 -126t116.5 -82.5t156 -30zM622 1627q0 -22 -9 -41t-24 -33.5 t-35 -23t-41 -8.5t-40 8.5t-33.5 23t-23.5 33.5t-9 41t9 42t23.5 35t33.5 23.5t40 8.5t41 -8.5t35 -23.5t24 -35t9 -42zM1030 1627q0 -22 -8.5 -41t-23.5 -33.5t-34.5 -23t-40.5 -8.5q-23 0 -42.5 8.5t-34 23t-23 33.5t-8.5 41t8.5 42t23 35t34 23.5t42.5 8.5 q21 0 40.5 -8.5t34.5 -23.5t23.5 -35t8.5 -42z" glyph-name="Udieresis" horiz-adv-x="1437" unicode="Ü"/>
<glyph d="M704 558v-558h-189v558l-513 841h166q25 0 40 -12t25 -32l321 -543q17 -35 32 -64.5t25 -60.5q11 31 24.5 60.5t30.5 64.5l319 543q9 17 24.5 30.5t40.5 13.5h167zM981 1809l-319 -280q-15 -13 -28.5 -16t-32.5 -3h-125l225 267q17 22 34 27t49 5h197z" glyph-name="Yacute" horiz-adv-x="1219" unicode="Ý"/>
<glyph d="M592 416q81 0 143 21.5t104.5 60t64 92.5t21.5 118q0 134 -82.5 209t-250.5 75h-225v-576h225zM592 1142q133 0 231 -31t162.5 -87.5t96 -136.5t31.5 -179q0 -98 -34 -179t-100 -139.5t-163 -91t-224 -32.5h-225v-266h-188v1399h188v-257h225z" glyph-name="Thorn" horiz-adv-x="1169" unicode="Þ"/>
<glyph d="M613 1420q101 0 174 -29.5t121 -74.5t71 -99t23 -104q0 -58 -21 -100t-52.5 -74.5t-68 -57t-67.5 -47.5t-52 -48t-21 -57q0 -38 25.5 -63t65 -47t84.5 -45t84.5 -57.5t65 -84t25.5 -125.5q0 -77 -27.5 -136.5t-76 -101t-115 -63.5t-142.5 -22q-95 0 -172.5 34t-136.5 86 l41 67q8 13 19 19.5t28 6.5q18 0 37.5 -13.5t46 -30t63 -30.5t89.5 -14q42 0 76 13.5t58.5 36t37 53.5t12.5 67q0 55 -27 89t-68.5 59t-89.5 45.5t-89 49t-68.5 69t-27.5 104.5q0 52 22 90.5t54.5 69.5t71.5 57t71.5 55.5t54.5 64t22 81.5q0 32 -12 63.5t-39.5 57t-71 41.5 t-106.5 16q-66 0 -119.5 -20.5t-92.5 -61.5t-60 -102.5t-21 -143.5v-963h-174v969q0 101 33.5 184t96 142.5t150.5 92t195 32.5z" glyph-name="germandbls" unicode="ß"/>
<glyph d="M674 445q-120 -4 -204.5 -19t-138 -39.5t-77.5 -57.5t-24 -74q0 -39 13 -67.5t35 -46.5t51.5 -26.5t64.5 -8.5q45 0 83.5 9.5t72 27t64.5 42t60 55.5v205zM112 850q82 79 177 118t210 39q83 0 147.5 -27.5t108.5 -76.5t66.5 -118t22.5 -152v-633h-77q-26 0 -39.5 8.5 t-21.5 32.5l-19 94q-40 -36 -77 -64t-78 -47t-87.5 -29.5t-102.5 -10.5q-58 0 -108.5 16.5t-88.5 48.5t-60 81.5t-22 116.5q0 59 32.5 113t104.5 96t188.5 69t285.5 31v77q0 115 -50 174t-145 59q-65 0 -108.5 -16t-75 -36t-54.5 -36t-46 -16q-17 0 -30 9t-21 23zM380 1415 q32 0 47.5 -10t29.5 -33l146 -236h-100q-20 0 -33 6t-27 21l-228 252h165z" glyph-name="agrave" horiz-adv-x="971" unicode="à"/>
<glyph d="M674 445q-120 -4 -204.5 -19t-138 -39.5t-77.5 -57.5t-24 -74q0 -39 13 -67.5t35 -46.5t51.5 -26.5t64.5 -8.5q45 0 83.5 9.5t72 27t64.5 42t60 55.5v205zM112 850q82 79 177 118t210 39q83 0 147.5 -27.5t108.5 -76.5t66.5 -118t22.5 -152v-633h-77q-26 0 -39.5 8.5 t-21.5 32.5l-19 94q-40 -36 -77 -64t-78 -47t-87.5 -29.5t-102.5 -10.5q-58 0 -108.5 16.5t-88.5 48.5t-60 81.5t-22 116.5q0 59 32.5 113t104.5 96t188.5 69t285.5 31v77q0 115 -50 174t-145 59q-65 0 -108.5 -16t-75 -36t-54.5 -36t-46 -16q-17 0 -30 9t-21 23zM762 1415 l-228 -252q-13 -15 -26.5 -21t-33.5 -6h-104l145 236q13 23 29.5 33t47.5 10h170z" glyph-name="aacute" horiz-adv-x="971" unicode="á"/>
<glyph d="M674 445q-120 -4 -204.5 -19t-138 -39.5t-77.5 -57.5t-24 -74q0 -39 13 -67.5t35 -46.5t51.5 -26.5t64.5 -8.5q45 0 83.5 9.5t72 27t64.5 42t60 55.5v205zM112 850q82 79 177 118t210 39q83 0 147.5 -27.5t108.5 -76.5t66.5 -118t22.5 -152v-633h-77q-26 0 -39.5 8.5 t-21.5 32.5l-19 94q-40 -36 -77 -64t-78 -47t-87.5 -29.5t-102.5 -10.5q-58 0 -108.5 16.5t-88.5 48.5t-60 81.5t-22 116.5q0 59 32.5 113t104.5 96t188.5 69t285.5 31v77q0 115 -50 174t-145 59q-65 0 -108.5 -16t-75 -36t-54.5 -36t-46 -16q-17 0 -30 9t-21 23zM776 1142 h-116q-11 0 -22 3.5t-22 14.5l-120 129q-9 8 -16 19l-8 -10t-8 -9l-121 -129q-21 -18 -44 -18h-120l217 257h163z" glyph-name="acircumflex" horiz-adv-x="971" unicode="â"/>
<glyph d="M674 445q-120 -4 -204.5 -19t-138 -39.5t-77.5 -57.5t-24 -74q0 -39 13 -67.5t35 -46.5t51.5 -26.5t64.5 -8.5q45 0 83.5 9.5t72 27t64.5 42t60 55.5v205zM112 850q82 79 177 118t210 39q83 0 147.5 -27.5t108.5 -76.5t66.5 -118t22.5 -152v-633h-77q-26 0 -39.5 8.5 t-21.5 32.5l-19 94q-40 -36 -77 -64t-78 -47t-87.5 -29.5t-102.5 -10.5q-58 0 -108.5 16.5t-88.5 48.5t-60 81.5t-22 116.5q0 59 32.5 113t104.5 96t188.5 69t285.5 31v77q0 115 -50 174t-145 59q-65 0 -108.5 -16t-75 -36t-54.5 -36t-46 -16q-17 0 -30 9t-21 23zM585 1294 q35 0 54 20.5t20 63.5h106q0 -46 -12.5 -84.5t-35.5 -66t-54.5 -42.5t-70.5 -15q-34 0 -64 14t-56.5 30.5t-49.5 31t-46 14.5q-70 0 -72 -86h-109q0 47 13 85.5t36.5 66.5t55.5 43t70 15q34 0 64 -14.5t56.5 -31t49.5 -30.5t45 -14z" glyph-name="atilde" horiz-adv-x="971" unicode="ã"/>
<glyph d="M674 445q-120 -4 -204.5 -19t-138 -39.5t-77.5 -57.5t-24 -74q0 -39 13 -67.5t35 -46.5t51.5 -26.5t64.5 -8.5q45 0 83.5 9.5t72 27t64.5 42t60 55.5v205zM112 850q82 79 177 118t210 39q83 0 147.5 -27.5t108.5 -76.5t66.5 -118t22.5 -152v-633h-77q-26 0 -39.5 8.5 t-21.5 32.5l-19 94q-40 -36 -77 -64t-78 -47t-87.5 -29.5t-102.5 -10.5q-58 0 -108.5 16.5t-88.5 48.5t-60 81.5t-22 116.5q0 59 32.5 113t104.5 96t188.5 69t285.5 31v77q0 115 -50 174t-145 59q-65 0 -108.5 -16t-75 -36t-54.5 -36t-46 -16q-17 0 -30 9t-21 23zM401 1259 q0 -23 -8.5 -42.5t-24 -34t-35.5 -23.5t-43 -9q-21 0 -40.5 9t-35 23.5t-24 34t-8.5 42.5q0 22 8.5 42.5t24 36t35 24t40.5 8.5q23 0 43 -8.5t35.5 -24t24 -36t8.5 -42.5zM774 1259q0 -23 -9 -42.5t-24 -34t-35 -23.5t-43 -9q-22 0 -42 9t-35 23.5t-23.5 34t-8.5 42.5 q0 22 8.5 42.5t23.5 36t35 24t42 8.5q23 0 43 -8.5t35 -24t24 -36t9 -42.5z" glyph-name="adieresis" horiz-adv-x="971" unicode="ä"/>
<glyph d="M674 445q-120 -4 -204.5 -19t-138 -39.5t-77.5 -57.5t-24 -74q0 -39 13 -67.5t35 -46.5t51.5 -26.5t64.5 -8.5q45 0 83.5 9.5t72 27t64.5 42t60 55.5v205zM112 850q82 79 177 118t210 39q83 0 147.5 -27.5t108.5 -76.5t66.5 -118t22.5 -152v-633h-77q-26 0 -39.5 8.5 t-21.5 32.5l-19 94q-40 -36 -77 -64t-78 -47t-87.5 -29.5t-102.5 -10.5q-58 0 -108.5 16.5t-88.5 48.5t-60 81.5t-22 116.5q0 59 32.5 113t104.5 96t188.5 69t285.5 31v77q0 115 -50 174t-145 59q-65 0 -108.5 -16t-75 -36t-54.5 -36t-46 -16q-17 0 -30 9t-21 23zM283 1284 q0 41 16 74.5t42.5 57.5t62 37.5t74.5 13.5q40 0 75.5 -13.5t63 -37.5t43 -57.5t15.5 -74.5q0 -40 -15.5 -73t-43 -56.5t-63 -37t-75.5 -13.5q-39 0 -74.5 13.5t-62 37t-42.5 56.5t-16 73zM381 1284q0 -43 26.5 -70t72.5 -27q44 0 70.5 27t26.5 70q0 44 -26.5 71.5 t-70.5 27.5q-46 0 -72.5 -27.5t-26.5 -71.5z" glyph-name="aring" horiz-adv-x="971" unicode="å"/>
<glyph d="M1340 583q0 63 -15.5 117.5t-45.5 93.5t-73 61t-97 22q-59 0 -106 -20t-80.5 -58t-54 -93t-27.5 -123h499zM676 475q-120 -5 -204.5 -22t-137.5 -44t-77 -62.5t-24 -76.5q0 -85 49 -124.5t128 -39.5q56 0 104 18t84.5 54t57 89.5t20.5 126.5v81zM114 850q82 79 170.5 118 t198.5 39q118 0 189 -50t103 -138q53 86 138 136t202 50q80 0 149.5 -31.5t120.5 -91t80 -145t29 -194.5q0 -40 -7.5 -54t-32.5 -14h-615q4 -88 26.5 -154t60 -110t88.5 -66t115 -22q67 0 112 14t75 32t49 32t34 14q14 0 22.5 -4.5t14.5 -12.5l45 -59q-32 -39 -74.5 -68 t-90.5 -47.5t-100 -28t-103 -9.5q-115 0 -207.5 55.5t-146.5 168.5q-27 -61 -69 -104t-94 -70t-110 -39.5t-116 -12.5q-67 0 -123 17.5t-96.5 51.5t-62.5 85.5t-22 122.5q0 58 32.5 115t104 101.5t188 73.5t285.5 33v49q0 115 -50 176.5t-146 61.5q-64 0 -107.5 -17 t-75 -37.5t-54.5 -37.5t-46 -17q-17 0 -30 9t-21 23z" glyph-name="ae" horiz-adv-x="1572" unicode="æ"/>
<glyph d="M884 139q-56 -70 -137 -106t-173 -44l-17 -62q90 -19 130.5 -53t40.5 -87q0 -31 -16 -56.5t-43.5 -43t-66.5 -27t-85 -9.5q-40 0 -77 8.5t-66 22.5l16 53q6 18 22 18q6 0 14 -3.5t19 -8t26 -8t37 -3.5q41 0 61.5 17t20.5 42q0 37 -41 52t-115 25l40 122q-85 8 -157 45.5 t-124 102.5t-81.5 155.5t-29.5 203.5q0 110 31 204t90 162t145.5 106t198.5 38q104 0 184 -34t141 -95l-46 -63q-8 -10 -15.5 -16t-21.5 -6q-15 0 -32.5 12t-43.5 27t-63.5 27t-91.5 12q-74 0 -129.5 -26t-93 -74.5t-56.5 -118t-19 -155.5q0 -90 20.5 -159.5t58 -117 t90.5 -72.5t120 -25q63 0 104 15t68 33.5t45 34t36 15.5q21 0 33 -17z" glyph-name="ccedilla" horiz-adv-x="934" unicode="ç"/>
<glyph d="M800 603q0 60 -17 110.5t-50 87t-80 56.5t-106 20q-125 0 -198 -73t-90 -201h541zM940 139q-32 -39 -77 -68t-96 -47.5t-106 -28t-108 -9.5q-103 0 -189.5 35t-149.5 101.5t-98 165.5t-35 227q0 103 32 193t91.5 156t145.5 103.5t193 37.5q89 0 164.5 -30t131 -86 t86.5 -138.5t31 -188.5q0 -41 -9 -54.5t-33 -13.5h-661q3 -94 26 -163t64 -115.5t97.5 -69.5t126.5 -23q66 0 113.5 15t81.5 32.5t57 33t39 15.5q22 0 34 -17zM449 1415q32 0 47.5 -10t29.5 -33l146 -236h-100q-20 0 -33 6t-27 21l-228 252h165z" glyph-name="egrave" horiz-adv-x="1031" unicode="è"/>
<glyph d="M800 603q0 60 -17 110.5t-50 87t-80 56.5t-106 20q-125 0 -198 -73t-90 -201h541zM940 139q-32 -39 -77 -68t-96 -47.5t-106 -28t-108 -9.5q-103 0 -189.5 35t-149.5 101.5t-98 165.5t-35 227q0 103 32 193t91.5 156t145.5 103.5t193 37.5q89 0 164.5 -30t131 -86 t86.5 -138.5t31 -188.5q0 -41 -9 -54.5t-33 -13.5h-661q3 -94 26 -163t64 -115.5t97.5 -69.5t126.5 -23q66 0 113.5 15t81.5 32.5t57 33t39 15.5q22 0 34 -17zM831 1415l-228 -252q-13 -15 -26.5 -21t-33.5 -6h-104l145 236q13 23 29.5 33t47.5 10h170z" glyph-name="eacute" horiz-adv-x="1031" unicode="é"/>
<glyph d="M800 603q0 60 -17 110.5t-50 87t-80 56.5t-106 20q-125 0 -198 -73t-90 -201h541zM940 139q-32 -39 -77 -68t-96 -47.5t-106 -28t-108 -9.5q-103 0 -189.5 35t-149.5 101.5t-98 165.5t-35 227q0 103 32 193t91.5 156t145.5 103.5t193 37.5q89 0 164.5 -30t131 -86 t86.5 -138.5t31 -188.5q0 -41 -9 -54.5t-33 -13.5h-661q3 -94 26 -163t64 -115.5t97.5 -69.5t126.5 -23q66 0 113.5 15t81.5 32.5t57 33t39 15.5q22 0 34 -17zM846 1142h-117q-10 0 -21.5 3.5t-21.5 14.5l-121 129q-8 8 -15 19q-5 -5 -9 -10t-8 -9l-121 -129 q-20 -18 -44 -18h-120l218 257h162z" glyph-name="ecircumflex" horiz-adv-x="1031" unicode="ê"/>
<glyph d="M800 603q0 60 -17 110.5t-50 87t-80 56.5t-106 20q-125 0 -198 -73t-90 -201h541zM940 139q-32 -39 -77 -68t-96 -47.5t-106 -28t-108 -9.5q-103 0 -189.5 35t-149.5 101.5t-98 165.5t-35 227q0 103 32 193t91.5 156t145.5 103.5t193 37.5q89 0 164.5 -30t131 -86 t86.5 -138.5t31 -188.5q0 -41 -9 -54.5t-33 -13.5h-661q3 -94 26 -163t64 -115.5t97.5 -69.5t126.5 -23q66 0 113.5 15t81.5 32.5t57 33t39 15.5q22 0 34 -17zM470 1259q0 -23 -8.5 -42.5t-24 -34t-35.5 -23.5t-43 -9q-21 0 -40.5 9t-35 23.5t-24 34t-8.5 42.5 q0 22 8.5 42.5t24 36t35 24t40.5 8.5q23 0 43 -8.5t35.5 -24t24 -36t8.5 -42.5zM843 1259q0 -23 -9 -42.5t-24 -34t-35 -23.5t-43 -9q-22 0 -42 9t-35 23.5t-23.5 34t-8.5 42.5q0 22 8.5 42.5t23.5 36t35 24t42 8.5q23 0 43 -8.5t35 -24t24 -36t9 -42.5z" glyph-name="edieresis" horiz-adv-x="1031" unicode="ë"/>
<glyph d="M322 989v-989h-175v989h175zM143 1415q32 0 47.5 -10t29.5 -33l146 -236h-100q-20 0 -33 6t-27 21l-228 252h165z" glyph-name="igrave" horiz-adv-x="469" unicode="ì"/>
<glyph d="M322 989v-989h-175v989h175zM525 1415l-228 -252q-13 -15 -26.5 -21t-33.5 -6h-104l145 236q13 23 29.5 33t47.5 10h170z" glyph-name="iacute" horiz-adv-x="469" unicode="í"/>
<glyph d="M321 989v-989h-175v989h175zM538 1142h-116q-11 0 -22 3.5t-22 14.5l-120 129q-9 8 -16 19q-5 -5 -9 -10t-7 -9l-122 -129q-20 -18 -43 -18h-121l218 257h162z" glyph-name="icircumflex" horiz-adv-x="469" unicode="î"/>
<glyph d="M322 989v-989h-175v989h175zM199 1259q0 -23 -9 -42.5t-24.5 -34t-35.5 -23.5t-43 -9q-22 0 -41.5 9t-34.5 23.5t-24 34t-9 42.5q0 22 9 42.5t24 36t34.5 24t41.5 8.5q23 0 43 -8.5t35.5 -24t24.5 -36t9 -42.5zM503 1259q0 -23 -8.5 -42.5t-24 -34t-36 -23.5t-42.5 -9 t-42.5 9t-35 23.5t-23 34t-8.5 42.5q0 22 8.5 42.5t23 36t35 24t42.5 8.5t42.5 -8.5t36 -24t24 -36t8.5 -42.5z" glyph-name="idieresis" horiz-adv-x="469" unicode="ï"/>
<glyph d="M538 122q69 0 125.5 26.5t96.5 80t62.5 133.5t25.5 189q-16 42 -42 81.5t-62.5 70t-84.5 49t-108 18.5q-73 0 -129 -24.5t-93 -67t-56 -100.5t-19 -125q0 -79 22.5 -141t61.5 -104t90 -64t110 -22zM749 1198q59 -48 107 -108.5t83 -136t53.5 -166t18.5 -197.5 q0 -140 -30.5 -251t-90.5 -189.5t-149.5 -120.5t-206.5 -42q-96 0 -178.5 32.5t-144 92.5t-96.5 147t-35 196q0 92 30.5 173.5t87 143t137 97.5t182.5 36q98 0 184.5 -41.5t149.5 -126.5q-20 133 -76.5 225.5t-149.5 155.5l-180 -133l-32 55q-12 18 -8 34.5t22 27.5l100 70 q-87 39 -198 65q-22 7 -36 27.5t-1 55.5l20 61q93 -15 181.5 -44.5t167.5 -76.5l162 119l34 -56q11 -16 7 -32.5t-20 -26.5z" glyph-name="eth" horiz-adv-x="1105" unicode="ð"/>
<glyph d="M302 846q32 36 68 65t76.5 50t86 32.5t98.5 11.5q81 0 143 -27t103.5 -76t63 -118.5t21.5 -153.5v-630h-175v630q0 112 -51 174t-156 62q-77 0 -144 -37t-124 -100v-729h-174v989h104q37 0 46 -36zM658 1294q35 0 54 20.5t20 63.5h106q0 -46 -12.5 -84.5t-35.5 -66 t-54.5 -42.5t-70.5 -15q-34 0 -64 14t-56.5 30.5t-49.5 31t-46 14.5q-70 0 -72 -86h-109q0 47 13 85.5t36.5 66.5t55.5 43t70 15q34 0 64 -14.5t56.5 -31t49.5 -30.5t45 -14z" glyph-name="ntilde" horiz-adv-x="1090" unicode="ñ"/>
<glyph d="M555 1005q108 0 195 -36t148.5 -102.5t94 -161t32.5 -210.5q0 -117 -32.5 -211t-94 -160t-148.5 -102t-195 -36q-110 0 -197 36t-149 102t-94.5 160t-32.5 211q0 116 32.5 210.5t94.5 161t149 102.5t197 36zM555 122q146 0 218.5 98t72.5 274q0 177 -72.5 275.5 t-218.5 98.5q-75 0 -130 -25.5t-91.5 -73t-54.5 -117.5t-18 -158q0 -176 72.5 -274t221.5 -98zM458 1415q32 0 47.5 -10t29.5 -33l146 -236h-100q-20 0 -33 6t-27 21l-228 252h165z" glyph-name="ograve" horiz-adv-x="1107" unicode="ò"/>
<glyph d="M555 1005q108 0 195 -36t148.5 -102.5t94 -161t32.5 -210.5q0 -117 -32.5 -211t-94 -160t-148.5 -102t-195 -36q-110 0 -197 36t-149 102t-94.5 160t-32.5 211q0 116 32.5 210.5t94.5 161t149 102.5t197 36zM555 122q146 0 218.5 98t72.5 274q0 177 -72.5 275.5 t-218.5 98.5q-75 0 -130 -25.5t-91.5 -73t-54.5 -117.5t-18 -158q0 -176 72.5 -274t221.5 -98zM840 1415l-228 -252q-13 -15 -26.5 -21t-33.5 -6h-104l145 236q13 23 29.5 33t47.5 10h170z" glyph-name="oacute" horiz-adv-x="1107" unicode="ó"/>
<glyph d="M555 1005q108 0 195 -36t148.5 -102.5t94 -161t32.5 -210.5q0 -117 -32.5 -211t-94 -160t-148.5 -102t-195 -36q-110 0 -197 36t-149 102t-94.5 160t-32.5 211q0 116 32.5 210.5t94.5 161t149 102.5t197 36zM555 122q146 0 218.5 98t72.5 274q0 177 -72.5 275.5 t-218.5 98.5q-75 0 -130 -25.5t-91.5 -73t-54.5 -117.5t-18 -158q0 -176 72.5 -274t221.5 -98zM854 1142h-116q-10 0 -21.5 3.5t-22.5 14.5l-120 129q-9 8 -15 19q-5 -5 -9 -10t-8 -9l-121 -129q-21 -18 -44 -18h-120l218 257h162z" glyph-name="ocircumflex" horiz-adv-x="1107" unicode="ô"/>
<glyph d="M555 1005q108 0 195 -36t148.5 -102.5t94 -161t32.5 -210.5q0 -117 -32.5 -211t-94 -160t-148.5 -102t-195 -36q-110 0 -197 36t-149 102t-94.5 160t-32.5 211q0 116 32.5 210.5t94.5 161t149 102.5t197 36zM555 122q146 0 218.5 98t72.5 274q0 177 -72.5 275.5 t-218.5 98.5q-75 0 -130 -25.5t-91.5 -73t-54.5 -117.5t-18 -158q0 -176 72.5 -274t221.5 -98zM663 1294q35 0 54 20.5t20 63.5h106q0 -46 -12.5 -84.5t-35.5 -66t-54.5 -42.5t-70.5 -15q-34 0 -64 14t-56.5 30.5t-49.5 31t-46 14.5q-70 0 -72 -86h-109q0 47 13 85.5 t36.5 66.5t55.5 43t70 15q34 0 64 -14.5t56.5 -31t49.5 -30.5t45 -14z" glyph-name="otilde" horiz-adv-x="1107" unicode="õ"/>
<glyph d="M555 1005q108 0 195 -36t148.5 -102.5t94 -161t32.5 -210.5q0 -117 -32.5 -211t-94 -160t-148.5 -102t-195 -36q-110 0 -197 36t-149 102t-94.5 160t-32.5 211q0 116 32.5 210.5t94.5 161t149 102.5t197 36zM555 122q146 0 218.5 98t72.5 274q0 177 -72.5 275.5 t-218.5 98.5q-75 0 -130 -25.5t-91.5 -73t-54.5 -117.5t-18 -158q0 -176 72.5 -274t221.5 -98zM479 1259q0 -23 -8.5 -42.5t-24 -34t-35.5 -23.5t-43 -9q-21 0 -40.5 9t-35 23.5t-24 34t-8.5 42.5q0 22 8.5 42.5t24 36t35 24t40.5 8.5q23 0 43 -8.5t35.5 -24t24 -36 t8.5 -42.5zM852 1259q0 -23 -9 -42.5t-24 -34t-35 -23.5t-43 -9q-22 0 -42 9t-35 23.5t-23.5 34t-8.5 42.5q0 22 8.5 42.5t23.5 36t35 24t42 8.5q23 0 43 -8.5t35 -24t24 -36t9 -42.5z" glyph-name="odieresis" horiz-adv-x="1107" unicode="ö"/>
<glyph d="M98 722h936v-132h-936v132zM443 1002q0 25 9.5 47.5t26 39t38.5 26.5t48 10t48 -10t38.5 -26.5t26 -39t9.5 -47.5q0 -26 -9.5 -48t-26 -39t-38.5 -26t-48 -9t-48 9t-38.5 26t-26 39t-9.5 48zM443 307q0 25 9.5 47.5t26 39t38.5 26.5t48 10t48 -10t38.5 -26.5t26 -39 t9.5 -47.5q0 -27 -9.5 -49t-26 -38.5t-38.5 -25.5t-48 -9t-48 9t-38.5 25.5t-26 38.5t-9.5 49z" glyph-name="divide" unicode="÷"/>
<glyph d="M383 164q68 -47 172 -47q73 0 129 26t94.5 75t58 118.5t19.5 157.5q0 148 -50 241zM734 819q-71 55 -179 55q-75 0 -131.5 -26.5t-95 -75t-58 -119.5t-19.5 -159q0 -156 58 -251zM900 864q61 -67 93 -160t32 -209q0 -117 -32.5 -211t-94 -160t-148.5 -102t-195 -36 q-75 0 -138.5 17t-116.5 48l-54 -72q-19 -30 -49 -41.5t-58 -11.5h-66l142 191q-65 68 -99 163t-34 215q0 116 32.5 210.5t94.5 161t149 102.5t197 36q77 0 143 -18.5t120 -52.5l67 88q17 28 33.5 38.5t48.5 10.5h87z" glyph-name="oslash" horiz-adv-x="1106" unicode="ø"/>
<glyph d="M951 989v-989h-103q-37 0 -47 36l-14 107q-64 -72 -144.5 -115.5t-183.5 -43.5q-81 0 -143 27t-104 76t-63 118t-21 153v631h174v-631q0 -112 51 -173.5t157 -61.5q77 0 144 36.5t123 101.5v728h174zM447 1415q32 0 47.5 -10t29.5 -33l146 -236h-100q-20 0 -33 6t-27 21 l-228 252h165z" glyph-name="ugrave" horiz-adv-x="1089" unicode="ù"/>
<glyph d="M951 989v-989h-103q-37 0 -47 36l-14 107q-64 -72 -144.5 -115.5t-183.5 -43.5q-81 0 -143 27t-104 76t-63 118t-21 153v631h174v-631q0 -112 51 -173.5t157 -61.5q77 0 144 36.5t123 101.5v728h174zM829 1415l-228 -252q-13 -15 -26.5 -21t-33.5 -6h-104l145 236 q13 23 29.5 33t47.5 10h170z" glyph-name="uacute" horiz-adv-x="1089" unicode="ú"/>
<glyph d="M951 989v-989h-103q-37 0 -47 36l-14 107q-64 -72 -144.5 -115.5t-183.5 -43.5q-81 0 -143 27t-104 76t-63 118t-21 153v631h174v-631q0 -112 51 -173.5t157 -61.5q77 0 144 36.5t123 101.5v728h174zM844 1142h-116q-11 0 -22.5 3.5t-21.5 14.5l-121 129q-8 8 -15 19 q-5 -5 -9 -10t-8 -9l-121 -129q-20 -18 -44 -18h-120l218 257h162z" glyph-name="ucircumflex" horiz-adv-x="1089" unicode="û"/>
<glyph d="M951 989v-989h-103q-37 0 -47 36l-14 107q-64 -72 -144.5 -115.5t-183.5 -43.5q-81 0 -143 27t-104 76t-63 118t-21 153v631h174v-631q0 -112 51 -173.5t157 -61.5q77 0 144 36.5t123 101.5v728h174zM468 1259q0 -23 -8.5 -42.5t-24 -34t-35.5 -23.5t-43 -9 q-21 0 -40.5 9t-35 23.5t-24 34t-8.5 42.5q0 22 8.5 42.5t24 36t35 24t40.5 8.5q23 0 43 -8.5t35.5 -24t24 -36t8.5 -42.5zM841 1259q0 -23 -9 -42.5t-24 -34t-35 -23.5t-43 -9q-22 0 -42 9t-35 23.5t-23.5 34t-8.5 42.5q0 22 8.5 42.5t23.5 36t35 24t42 8.5q23 0 43 -8.5 t35 -24t24 -36t9 -42.5z" glyph-name="udieresis" horiz-adv-x="1089" unicode="ü"/>
<glyph d="M991 989l-552 -1281q-8 -20 -21.5 -31.5t-40.5 -11.5h-129l181 393l-408 931h150q22 0 35.5 -11t18.5 -25l264 -623q16 -41 27 -86q13 46 29 87l257 622q6 16 20 26t32 10h137zM814 1415l-228 -252q-13 -15 -26.5 -21t-33.5 -6h-104l145 236q13 23 29.5 33t47.5 10h170z " glyph-name="yacute" horiz-adv-x="1007" unicode="ý"/>
<glyph d="M312 238q48 -64 105 -90.5t127 -26.5q139 0 213 98.5t74 281.5q0 97 -17 166t-49.5 113.5t-79 65t-106.5 20.5q-85 0 -149 -39t-118 -110v-479zM312 847q63 72 142 115t182 43q86 0 155 -32.5t118 -96.5t75.5 -158t26.5 -217q0 -109 -29.5 -203.5t-84.5 -163.5 t-134.5 -108.5t-179.5 -39.5q-92 0 -156.5 34t-114.5 95v-450h-174v1773h174v-591z" glyph-name="thorn" horiz-adv-x="1095" unicode="þ"/>
<glyph d="M322 989v-989h-175v989h175z" glyph-name="dotlessi" horiz-adv-x="470" unicode="ı"/>
<glyph d="M195 1284q0 41 16 74.5t42.5 57.5t62 37.5t74.5 13.5q40 0 75.5 -13.5t63 -37.5t43 -57.5t15.5 -74.5q0 -40 -15.5 -73t-43 -56.5t-63 -37t-75.5 -13.5q-39 0 -74.5 13.5t-62 37t-42.5 56.5t-16 73zM293 1284q0 -43 26.5 -70t72.5 -27q44 0 70.5 27t26.5 70 q0 44 -26.5 71.5t-70.5 27.5q-46 0 -72.5 -27.5t-26.5 -71.5z" glyph-name="ring" horiz-adv-x="781" unicode="˚"/>
<glyph d="M498 1294q35 0 54 20.5t20 63.5h106q0 -46 -12.5 -84.5t-35.5 -66t-54.5 -42.5t-70.5 -15q-34 0 -64 14t-56.5 30.5t-49.5 31t-46 14.5q-70 0 -72 -86h-109q0 47 13 85.5t36.5 66.5t55.5 43t70 15q34 0 64 -14.5t56.5 -31t49.5 -30.5t45 -14z" glyph-name="tilde" horiz-adv-x="781" unicode="˜"/>
<glyph d="M415 227q14 -23 9.5 -43t-27.5 -31l-56 -27l-243 380v22l243 380l56 -27q23 -11 27.5 -31t-9.5 -42l-154 -255q-14 -25 -28 -35q14 -13 28 -37z" glyph-name="guilsinglleft" horiz-adv-x="549" unicode="‹"/>
<glyph d="M452 528v-22l-243 -380l-57 27q-22 11 -26.5 31t9.5 43l154 254q8 12 14.5 21.5t13.5 15.5q-7 4 -13.5 13.5t-14.5 21.5l-154 255q-14 22 -9.5 42t26.5 31l57 27z" glyph-name="guilsinglright" horiz-adv-x="550" unicode="›"/>
<glyph d="M-183 52q-18 -31 -39.5 -41.5t-49.5 -10.5h-75l799 1340q18 28 40.5 43.5t53.5 15.5h75z" glyph-name="fraction" horiz-adv-x="273" unicode="⁄"/>
<glyph d="M229 1809q32 0 48.5 -5t33.5 -27l222 -267h-125q-21 0 -33.5 2.5t-26.5 15.5l-305 281h186z" glyph-name="grave.case" horiz-adv-x="781"/>
<glyph d="M771 1809l-319 -280q-15 -13 -28.5 -16t-32.5 -3h-125l225 267q17 22 34 27t49 5h197z" glyph-name="acute.case" horiz-adv-x="781"/>
<glyph d="M704 1510h-127q-12 0 -28 4.5t-32 23.5l-115 138l-11 17l-12 -17l-114 -138q-17 -19 -33 -23.5t-28 -4.5h-122l233 264h157z" glyph-name="circumflex.case" horiz-adv-x="781"/>
<glyph d="M514 1624q22 0 39 8.5t29 22.5t17.5 31.5t5.5 35.5h107q0 -42 -12 -80.5t-34.5 -68.5t-56 -47.5t-76.5 -17.5q-44 0 -78.5 16t-64.5 35t-56 35t-54 16q-22 0 -38.5 -8.5t-28 -23t-17.5 -32t-6 -34.5h-108q0 42 12 81t34.5 68.5t56 47.5t76.5 18q44 0 79 -16.5t64.5 -35.5 t55.5 -35t54 -16z" glyph-name="tilde.case" horiz-adv-x="781"/>
<glyph d="M294 1627q0 -22 -9 -41t-24 -33.5t-35 -23t-41 -8.5t-40 8.5t-33.5 23t-23.5 33.5t-9 41t9 42t23.5 35t33.5 23.5t40 8.5t41 -8.5t35 -23.5t24 -35t9 -42zM702 1627q0 -22 -8.5 -41t-23.5 -33.5t-34.5 -23t-40.5 -8.5q-23 0 -42.5 8.5t-34 23t-23 33.5t-8.5 41t8.5 42 t23 35t34 23.5t42.5 8.5q21 0 40.5 -8.5t34.5 -23.5t23.5 -35t8.5 -42z" glyph-name="dieresis.case" horiz-adv-x="781"/>
<glyph d="M205 1657q0 38 15 70.5t40 55t58.5 35t70.5 12.5q38 0 72 -12.5t59.5 -35t40.5 -55t15 -70.5t-15 -69t-40.5 -53.5t-59.5 -35.5t-72 -13q-37 0 -70.5 13t-58.5 35.5t-40 53.5t-15 69zM292 1657q0 -43 26.5 -70t73.5 -27q44 0 70.5 27t26.5 70q0 44 -26.5 71.5t-70.5 27.5 q-47 0 -73.5 -27.5t-26.5 -71.5z" glyph-name="ring.case" horiz-adv-x="781"/>
<glyph d="M550 83v-83h-398v83h144v430l5 43l-106 -87q-8 -7 -16.5 -8.5t-16.5 0t-14 5.5t-9 8l-38 54l216 186h106v-631h127z" glyph-name="one.dnom" horiz-adv-x="652"/>
<glyph d="M527 116q20 0 31 -10.5t11 -30.5v-75h-499v42q0 13 5.5 26.5t17.5 25.5l216 214q48 48 82 100t34 105q0 49 -29.5 76t-72.5 27q-46 0 -73 -23.5t-41 -64.5q-10 -17 -22.5 -24t-38.5 -3l-69 12q15 103 82.5 155t167.5 52q51 0 92.5 -15t70.5 -41t45.5 -64t16.5 -83 q0 -39 -12.5 -73t-33 -64t-46.5 -58.5t-56 -57.5l-159 -161q24 5 46.5 9t43.5 4h190z" glyph-name="two.dnom" horiz-adv-x="652"/>
<glyph d="M88 513q7 51 28.5 90t53 64.5t72.5 39t89 13.5q50 0 90 -14.5t69 -39t44.5 -58t15.5 -72.5q0 -125 -115 -169q130 -36 130 -155q0 -54 -20.5 -95t-54 -68.5t-78 -42t-91.5 -14.5q-55 0 -96 12.5t-71 36t-51 59t-36 81.5l54 23q22 9 41 4.5t26 -21.5q5 -9 13 -24.5t22 -30 t36 -24.5t55 -10q31 0 54 9.5t38.5 24.5t23 35t7.5 40q0 29 -8 50t-27 35t-51 20.5t-78 6.5v85q85 1 120 30.5t35 80.5q0 48 -28.5 73.5t-75.5 25.5t-74.5 -23t-39.5 -62q-10 -19 -20.5 -25.5t-36.5 -2.5z" glyph-name="three.dnom" horiz-adv-x="652"/>
<glyph d="M382 261v235q0 39 6 86l-237 -321h231zM594 261v-64q0 -10 -7 -17.5t-19 -7.5h-81v-172h-105v172h-299q-19 0 -28.5 7.5t-12.5 19.5l-10 56l335 457h120v-451h107z" glyph-name="four.dnom" horiz-adv-x="652"/>
<glyph d="M349 1259q0 -23 -9 -42.5t-24.5 -34t-35.5 -23.5t-43 -9q-22 0 -41.5 9t-34.5 23.5t-24 34t-9 42.5q0 22 9 42.5t24 36t34.5 24t41.5 8.5q23 0 43 -8.5t35.5 -24t24.5 -36t9 -42.5zM653 1259q0 -23 -8.5 -42.5t-24 -34t-36 -23.5t-42.5 -9t-42.5 9t-35 23.5t-23 34 t-8.5 42.5q0 22 8.5 42.5t23 36t35 24t42.5 8.5t42.5 -8.5t36 -24t24 -36t8.5 -42.5z" glyph-name="_1473" horiz-adv-x="781"/>
</font>
</defs>
</svg>
